<?xml version="1.0" ?><svg id="Chat_Balloon" style="enable-background:new 0 0 32 32;" version="1.1" viewBox="0 0 32 32" xml:space="preserve" xmlns="http://www.w3.org/2000/svg" xmlns:xlink="http://www.w3.org/1999/xlink"><style type="text/css">
	.st0{fill:#E4EDF2;}
	.st1{fill:#829098;}
</style><g><path class="st0" d="M15.973,23.069c6.645,0,12.027-3.94,12.027-8.785C28,9.441,22.617,5.5,16,5.5c-6.617,0-12,3.941-12,8.785   c0,2.76,1.821,5.397,4.87,7.055c0.39,0.213,0.594,0.656,0.5,1.091l-0.772,3.564l1.369-1.021c1.674-1.247,3.742-1.905,5.983-1.905   C15.958,23.069,15.965,23.069,15.973,23.069z"/><path class="st1" d="M16,3.5C8.28,3.5,2,8.338,2,14.285c0,3.293,1.952,6.401,5.261,8.434l-0.823,3.798   c-0.146,0.673,0.135,1.348,0.714,1.72c0.275,0.177,0.583,0.265,0.891,0.265c0.345,0,0.688-0.11,0.981-0.329l2.137-1.594   c1.326-0.987,2.981-1.509,4.82-1.509c0.006,0,0.013,0,0.019,0c7.72,0,14-4.838,14-10.785S23.72,3.5,16,3.5z M8.598,25.995   l0.772-3.564c0.094-0.435-0.11-0.878-0.5-1.091C5.821,19.682,4,17.045,4,14.285C4,9.441,9.383,5.5,16,5.5   c6.617,0,12,3.941,12,8.785c0,4.844-5.383,8.785-12.027,8.785c-0.008,0-0.015,0-0.023,0c-2.241,0-4.31,0.658-5.983,1.905   L8.598,25.995z"/></g></svg>