<?xml version="1.0" ?><svg viewBox="0 0 512 512" xmlns="http://www.w3.org/2000/svg"><g id="flat"><path d="M103.76,277.65a7.964,7.964,0,0,1-4.965-1.731l-7.127-5.65-.11-.088A59.573,59.573,0,0,1,69.739,224a8,8,0,0,1,16,0,43.623,43.623,0,0,0,15.926,33.776l7.069,5.606a8,8,0,0,1-4.974,14.268Z" style="fill:#cdccc8"/><polygon points="231 327 288 384 288 432 144 432 144 368 231 327" style="fill:#d78e0c"/><polygon points="256 352 256 432 222.2 432 223.83 330.38 231 327 256 352" style="fill:#c7830b"/><polygon points="337.565 269.502 296.113 182.912 237.005 207.661 281.22 300.023 337.565 269.502" style="fill:#cb2527"/><polygon points="237.005 207.661 128.759 252.983 122.627 283.703 150.876 305.657 150.261 341.429 178.035 355.917 281.22 300.023 237.005 207.661" style="fill:#eeb436"/><path d="M181.62,253.81a2,2,0,0,1-1.82,3.34l-6.72-1.23-3.26,6.01a2,2,0,0,1-3.74-.68l-.9-6.79-6.73-1.23a2,2,0,0,1-.5-3.77l6.17-2.96-.91-6.78a2.009,2.009,0,0,1,.24-1.26v-.01l2.25-.94a1.949,1.949,0,0,1,.94.57l4.72,4.95,6.17-2.95a2,2,0,0,1,2.62,2.76l-3.25,6.01Z" style="fill:#ea2b2d"/><path d="M219.74,333.33l-4.9,2.65-5.86,3.18-4.5,2.43a1.929,1.929,0,0,1-.4-.97l-.91-6.78-6.72-1.24a2,2,0,0,1-.51-3.77l6.17-2.95-.9-6.79a2,2,0,0,1,3.43-1.64l4.72,4.96,6.17-2.96a2,2,0,0,1,2.62,2.76l-3.25,6.02,4.71,4.95A1.738,1.738,0,0,1,219.74,333.33Z" style="fill:#ea2b2d"/><polygon points="368 72 376 48 360 40 352 24 320 32 328 64 368 72" style="fill:#cdccc8"/><polygon points="432 304 464 336 488 312 480 304 480 288 464 280 432 304" style="fill:#cdccc8"/><path d="M464,280l-32-24-24-56,.038-.115a32.963,32.963,0,0,0-12.987-37.851L392,160H376l-8-32V72l-40-8,8,96L324.976,169.1l41.452,86.589,17.09-8.016L400,280l32,24Z" style="fill:#eeb436"/><path d="M384,155l-32,13,16,16,8,24,24-8,24,8-4.876-19.5a32.96,32.96,0,0,0-13.894-19.564Z" style="fill:#05816e"/><path d="M200.157,425.193l-36.677-.78,26.487-25.384A8,8,0,1,0,178.9,387.477L152,413.252V376c0-4.418-3.582-7-8-7s-8,2.582-8,7v36.089l-24.971-26.056A8,8,0,1,0,99.477,397.1l25.383,26.487-36.677-.78a8,8,0,0,0-.34,16l36.677.78L98.033,464.971A8,8,0,0,0,109.1,476.523L136,450.748V488a8,8,0,0,0,16,0V451.911l24.971,26.056A8,8,0,1,0,188.523,466.9L163.14,440.409l36.677.78.173,0a8,8,0,0,0,.167-16Z" style="fill:#7a4922"/><rect height="128" rx="16" style="fill:#ea2b2d" transform="translate(-62.218 164.538) rotate(-25.581)" width="32" x="315.27" y="155.298"/><polygon points="296.113 182.912 259.112 253.842 337.565 269.502 296.113 182.912" style="fill:#529fff"/><path d="M150.876,305.657,122.627,283.7l6.132-30.72L59.607,281.937a60.88,60.88,0,0,0-31.4,82.444h0a60.878,60.878,0,0,0,83.908,27.243l65.919-35.707-27.774-14.488Z" style="fill:#cb2527"/><path d="M133.39,380.1l-21.27,11.52a61.285,61.285,0,0,1-7.2,3.32L52.51,285.46a62.514,62.514,0,0,1,7.1-3.52l22.31-9.35Z" style="fill:#529fff"/><path d="M144,496a64,64,0,1,1,64-64A64.072,64.072,0,0,1,144,496Zm0-112a48,48,0,1,0,48,48A48.053,48.053,0,0,0,144,384Z" style="fill:#a3612d"/><circle cx="144" cy="432" r="16" style="fill:#a3612d"/><path d="M319,448H296V425a8,8,0,0,0-16,0v23H257a8,8,0,0,0,0,16h23v23a8,8,0,0,0,16,0V464h23a8,8,0,0,0,0-16Z" style="fill:#7a4922"/><path d="M427.892,96.319a32,32,0,0,0-55.784,0,24,24,0,1,0,14.985,44.962,31.994,31.994,0,0,0,25.814,0,24,24,0,1,0,14.985-44.962Z" style="fill:#ea2b2d"/><path d="M376,128v24a24,24,0,0,0,24,24h0a24,24,0,0,0,24-24V128Z" style="fill:#eae9e4"/><path d="M74.545,176a8,8,0,0,1-8-7.907l-.186-16A8,8,0,0,1,74.269,144h.094a8,8,0,0,1,8,7.907l.186,16A8,8,0,0,1,74.64,176Z" style="fill:#ea2b2d"/><path d="M109.731,223.6a7.951,7.951,0,0,1-3.912-1.028l-13.948-7.84a8,8,0,1,1,7.84-13.947l13.948,7.84a8,8,0,0,1-3.928,14.975Z" style="fill:#ea2b2d"/><path d="M95.522,191.759a8,8,0,0,1-4.087-14.883l13.762-8.159a8,8,0,1,1,8.16,13.763L99.6,190.64A7.985,7.985,0,0,1,95.522,191.759Z" style="fill:#ea2b2d"/><path d="M53.94,192.238a7.96,7.96,0,0,1-3.912-1.027l-13.948-7.84a8,8,0,1,1,7.84-13.947l13.948,7.84a8,8,0,0,1-3.928,14.974Z" style="fill:#ea2b2d"/><path d="M40.47,224.4a8,8,0,0,1-4.088-14.881l13.763-8.161a8,8,0,0,1,8.16,13.762l-13.763,8.161A7.969,7.969,0,0,1,40.47,224.4Z" style="fill:#ea2b2d"/><circle cx="75.499" cy="194.989" r="8" style="fill:#b22122"/><path d="M304.008,344a8,8,0,0,1-3.977-14.947l8-4.572a8,8,0,0,1,7.938,13.893l-8,4.571A7.967,7.967,0,0,1,304.008,344Z" style="fill:#a6deff"/><path d="M336.008,325.715a8,8,0,0,1-3.977-14.947l24-13.714a8,8,0,1,1,7.938,13.892l-24,13.714A7.967,7.967,0,0,1,336.008,325.715Z" style="fill:#a6deff"/><path d="M214.359,241.32l4.717,4.956,6.17-2.954a2,2,0,0,1,2.623,2.756l-3.256,6.017,4.717,4.956a2,2,0,0,1-1.811,3.346l-6.729-1.237-3.255,6.017a2,2,0,0,1-3.742-.688l-.9-6.782-6.728-1.237a2,2,0,0,1-.5-3.771l6.171-2.954-.9-6.782A2,2,0,0,1,214.359,241.32Z" style="fill:#ea2b2d"/><path d="M183.917,274.156l4.716,4.956,6.171-2.954a2,2,0,0,1,2.622,2.756l-3.256,6.017,4.717,4.956a2,2,0,0,1-1.811,3.346L190.348,292l-3.256,6.017a2,2,0,0,1-3.742-.687l-.9-6.782-6.729-1.237a2,2,0,0,1-.5-3.771l6.171-2.954-.9-6.782A2,2,0,0,1,183.917,274.156Z" style="fill:#ea2b2d"/><path d="M231.835,277.825l4.716,4.956,6.171-2.954a2,2,0,0,1,2.623,2.756l-3.256,6.017,4.716,4.956A2,2,0,0,1,245,296.9l-6.729-1.237-3.256,6.017a2,2,0,0,1-3.741-.688l-.9-6.781-6.729-1.237a2,2,0,0,1-.5-3.771l6.171-2.955-.9-6.781A2,2,0,0,1,231.835,277.825Z" style="fill:#ea2b2d"/><circle cx="400" cy="152" r="8" style="fill:#ea2b2d"/><path d="M288,496a40,40,0,1,1,40-40A40.045,40.045,0,0,1,288,496Zm0-64a24,24,0,1,0,24,24A24.028,24.028,0,0,0,288,432Z" style="fill:#a3612d"/></g></svg>