<?xml version="1.0" ?><svg data-name="Layer 1" height="24" id="Layer_1" viewBox="0 0 24 24" width="24" xmlns="http://www.w3.org/2000/svg"><title/><path d="M16,7,13,9V5.2071a.5.5,0,0,1,.8536-.3535Z" style="fill:#ff888b"/><path d="M18,7l3,2V5.2071a.5.5,0,0,0-.8536-.3535Z" style="fill:#ff888b"/><path d="M6,13H4V5A1,1,0,0,1,5,4H5A1,1,0,0,1,6,5Z" style="fill:#4b5661"/><path d="M5.5,22h0A1.5,1.5,0,0,1,4,20.5V13H7v7.5A1.5,1.5,0,0,1,5.5,22Z" style="fill:#4b5661"/><path d="M15.5,22h0A1.5,1.5,0,0,1,14,20.5V13h3v7.5A1.5,1.5,0,0,1,15.5,22Z" style="fill:#4b5661"/><path d="M17,19c-3-4-10-4-13,0V12c3-4,10-4,13,0Z" style="fill:#4b5661"/><path d="M17,14h0a4,4,0,0,1-4-4V7h8v3A4.00005,4.00005,0,0,1,17,14Z" style="fill:#4b5661"/><circle cx="15.25" cy="9.75" r="0.75" style="fill:#fff"/><circle cx="19" cy="9.75" r="0.75" style="fill:#fff"/></svg>