<svg xmlns="http://www.w3.org/2000/svg" xmlns:xlink="http://www.w3.org/1999/xlink" width="1080" zoomAndPan="magnify" viewBox="0 0 810 149.999998" height="200" preserveAspectRatio="xMidYMid meet" version="1.0"><defs><g/></defs><g fill="#000000" fill-opacity="1"><g transform="translate(242.999993, 104.453647)"><g><path d="M 31.859375 1.796875 C 26.273438 1.796875 21.367188 0.445312 17.140625 -2.25 C 12.910156 -4.945312 9.65625 -8.617188 7.375 -13.265625 C 5.09375 -17.921875 3.953125 -23.097656 3.953125 -28.796875 C 3.953125 -34.679688 5.195312 -40.113281 7.6875 -45.09375 C 10.1875 -50.070312 13.578125 -54 17.859375 -56.875 C 22.148438 -59.757812 26.816406 -61.203125 31.859375 -61.203125 C 36.660156 -61.203125 40.875 -60.523438 44.5 -59.171875 C 48.132812 -57.828125 50.820312 -56.101562 52.5625 -54 C 53.582031 -52.738281 54.210938 -51.070312 54.453125 -49 C 54.691406 -46.9375 54.8125 -44.101562 54.8125 -40.5 L 53.015625 -40.5 C 51.867188 -46.320312 49.765625 -50.625 46.703125 -53.40625 C 43.648438 -56.195312 39.601562 -57.59375 34.5625 -57.59375 C 28.082031 -57.59375 22.859375 -55.3125 18.890625 -50.75 C 14.929688 -46.195312 12.953125 -38.878906 12.953125 -28.796875 C 12.953125 -24.054688 13.71875 -19.644531 15.25 -15.5625 C 16.78125 -11.488281 19.164062 -8.175781 22.40625 -5.625 C 25.644531 -3.070312 29.695312 -1.796875 34.5625 -1.796875 C 38.9375 -1.796875 42.757812 -2.84375 46.03125 -4.9375 C 49.300781 -7.039062 52.226562 -10.195312 54.8125 -14.40625 L 56.609375 -13.046875 C 53.847656 -7.648438 50.441406 -3.828125 46.390625 -1.578125 C 42.335938 0.671875 37.492188 1.796875 31.859375 1.796875 Z M 31.859375 1.796875 "/></g></g></g><g fill="#000000" fill-opacity="1"><g transform="translate(302.849934, 104.453647)"><g><path d="M 7.203125 -31.5 C 7.203125 -34.5625 6.78125 -36.828125 5.9375 -38.296875 C 5.101562 -39.765625 3.425781 -40.5 0.90625 -40.5 L 0 -40.5 L 0 -42.296875 L 7.203125 -42.296875 C 9.484375 -42.296875 11.207031 -41.976562 12.375 -41.34375 C 13.539062 -40.71875 14.363281 -39.6875 14.84375 -38.25 L 15.296875 -38.25 C 16.378906 -39.625 17.832031 -40.789062 19.65625 -41.75 C 21.488281 -42.71875 23.632812 -43.203125 26.09375 -43.203125 C 28.5 -43.203125 30.300781 -42.75 31.5 -41.84375 C 32.519531 -41.070312 33.570312 -39.722656 34.65625 -37.796875 L 31.046875 -35.09375 C 30.390625 -36 29.429688 -36.675781 28.171875 -37.125 C 26.910156 -37.570312 25.46875 -37.796875 23.84375 -37.796875 C 22.050781 -37.796875 20.40625 -37.390625 18.90625 -36.578125 C 17.40625 -35.773438 16.203125 -34.679688 15.296875 -33.296875 L 15.296875 0 L 7.203125 0 Z M 7.203125 -31.5 "/></g></g></g><g fill="#000000" fill-opacity="1"><g transform="translate(338.579898, 104.453647)"><g><path d="M 22.953125 0.90625 C 18.867188 0.90625 15.414062 -0.0664062 12.59375 -2.015625 C 9.78125 -3.972656 7.648438 -6.613281 6.203125 -9.9375 C 4.765625 -13.269531 4.046875 -17.007812 4.046875 -21.15625 C 4.046875 -25.226562 4.765625 -28.941406 6.203125 -32.296875 C 7.648438 -35.660156 9.738281 -38.316406 12.46875 -40.265625 C 15.195312 -42.222656 18.390625 -43.203125 22.046875 -43.203125 C 28.109375 -43.203125 32.625 -41.503906 35.59375 -38.109375 C 38.5625 -34.722656 40.046875 -29.820312 40.046875 -23.40625 L 39.875 -19.796875 L 12.59375 -19.796875 C 12.59375 -14.753906 13.671875 -10.644531 15.828125 -7.46875 C 17.992188 -4.289062 20.96875 -2.703125 24.75 -2.703125 C 27.570312 -2.703125 29.957031 -3.300781 31.90625 -4.5 C 33.851562 -5.695312 35.664062 -7.5 37.34375 -9.90625 L 39.15625 -8.546875 C 37.175781 -5.242188 34.863281 -2.84375 32.21875 -1.34375 C 29.582031 0.15625 26.492188 0.90625 22.953125 0.90625 Z M 31.5 -23.40625 C 31.5 -28.675781 30.71875 -32.691406 29.15625 -35.453125 C 27.59375 -38.210938 25.222656 -39.59375 22.046875 -39.59375 C 20.242188 -39.59375 18.625 -38.890625 17.1875 -37.484375 C 15.75 -36.078125 14.625 -34.140625 13.8125 -31.671875 C 13 -29.210938 12.59375 -26.457031 12.59375 -23.40625 Z M 31.5 -23.40625 "/></g></g></g><g fill="#000000" fill-opacity="1"><g transform="translate(382.499859, 104.453647)"><g><path d="M 16.5625 0.90625 C 14.644531 0.90625 12.691406 0.5 10.703125 -0.3125 C 8.722656 -1.125 7.03125 -2.457031 5.625 -4.3125 C 4.21875 -6.175781 3.515625 -8.640625 3.515625 -11.703125 C 3.515625 -16.265625 5.628906 -19.503906 9.859375 -21.421875 C 14.085938 -23.335938 19.617188 -24.296875 26.453125 -24.296875 L 29.15625 -24.296875 C 29.15625 -30.179688 28.34375 -34.203125 26.71875 -36.359375 C 25.101562 -38.515625 22.765625 -39.59375 19.703125 -39.59375 C 17.003906 -39.59375 14.84375 -39.023438 13.21875 -37.890625 C 11.601562 -36.753906 10.46875 -34.773438 9.8125 -31.953125 L 5.765625 -31.953125 C 5.765625 -33.992188 5.882812 -35.597656 6.125 -36.765625 C 6.363281 -37.929688 6.992188 -39.023438 8.015625 -40.046875 C 9.085938 -41.128906 10.867188 -41.925781 13.359375 -42.4375 C 15.847656 -42.945312 18.566406 -43.203125 21.515625 -43.203125 C 26.367188 -43.203125 30.207031 -41.894531 33.03125 -39.28125 C 35.851562 -36.675781 37.265625 -31.679688 37.265625 -24.296875 L 37.265625 0 L 32.765625 0 L 29.609375 -4.046875 L 29.15625 -4.046875 C 28.082031 -2.671875 26.492188 -1.5 24.390625 -0.53125 C 22.285156 0.425781 19.675781 0.90625 16.5625 0.90625 Z M 20.609375 -3.15625 C 22.585938 -3.15625 24.238281 -3.632812 25.5625 -4.59375 C 26.882812 -5.550781 28.082031 -6.867188 29.15625 -8.546875 L 29.15625 -20.703125 L 26.453125 -20.703125 C 22.015625 -20.703125 18.503906 -19.875 15.921875 -18.21875 C 13.347656 -16.570312 12.0625 -14.398438 12.0625 -11.703125 C 12.0625 -8.941406 12.882812 -6.828125 14.53125 -5.359375 C 16.1875 -3.890625 18.210938 -3.15625 20.609375 -3.15625 Z M 20.609375 -3.15625 "/></g></g></g><g fill="#000000" fill-opacity="1"><g transform="translate(425.789812, 104.453647)"><g><path d="M 18.984375 0.90625 C 15.628906 0.90625 12.988281 -0.0507812 11.0625 -1.96875 C 9.144531 -3.894531 8.1875 -6.835938 8.1875 -10.796875 L 8.1875 -38.703125 L 1.890625 -38.703125 L 1.890625 -42.296875 L 8.1875 -42.296875 L 8.1875 -50.40625 L 12.6875 -55.796875 L 16.296875 -55.796875 L 16.296875 -42.296875 L 27.09375 -42.296875 L 27.09375 -38.703125 L 16.296875 -38.703125 L 16.296875 -10.796875 C 16.296875 -5.398438 18.394531 -2.703125 22.59375 -2.703125 C 24.03125 -2.703125 25.242188 -2.847656 26.234375 -3.140625 C 27.222656 -3.441406 28.257812 -3.894531 29.34375 -4.5 L 30.234375 -2.703125 C 28.859375 -1.679688 27.328125 -0.820312 25.640625 -0.125 C 23.960938 0.5625 21.742188 0.90625 18.984375 0.90625 Z M 18.984375 0.90625 "/></g></g></g><g fill="#000000" fill-opacity="1"><g transform="translate(456.209774, 104.453647)"><g><path d="M 11.25 -47.703125 C 9.875 -47.703125 8.6875 -48.269531 7.6875 -49.40625 C 6.695312 -50.550781 6.203125 -51.898438 6.203125 -53.453125 C 6.203125 -54.710938 6.578125 -55.703125 7.328125 -56.421875 C 8.078125 -57.148438 9.082031 -57.515625 10.34375 -57.515625 C 11.726562 -57.515625 12.914062 -56.941406 13.90625 -55.796875 C 14.894531 -54.660156 15.390625 -53.3125 15.390625 -51.75 C 15.390625 -50.488281 15.015625 -49.5 14.265625 -48.78125 C 13.515625 -48.0625 12.507812 -47.703125 11.25 -47.703125 Z M 7.828125 -31.5 C 7.828125 -34.5625 7.40625 -36.828125 6.5625 -38.296875 C 5.726562 -39.765625 4.050781 -40.5 1.53125 -40.5 L -0.265625 -40.5 L -0.265625 -42.296875 L 7.828125 -42.296875 C 10.046875 -42.296875 11.707031 -42.007812 12.8125 -41.4375 C 13.925781 -40.875 14.722656 -39.84375 15.203125 -38.34375 C 15.691406 -36.84375 15.9375 -34.5625 15.9375 -31.5 L 15.9375 0 L 7.828125 0 Z M 7.828125 -31.5 "/></g></g></g><g fill="#000000" fill-opacity="1"><g transform="translate(478.349741, 104.453647)"><g><path d="M 8.90625 -31.953125 C 7.46875 -35.304688 6.085938 -37.660156 4.765625 -39.015625 C 3.453125 -40.367188 1.710938 -41.101562 -0.453125 -41.21875 L -0.453125 -43.015625 C -0.148438 -43.015625 0.28125 -43.046875 0.84375 -43.109375 C 1.414062 -43.171875 2.003906 -43.203125 2.609375 -43.203125 C 5.785156 -43.203125 8.664062 -42.40625 11.25 -40.8125 C 13.832031 -39.226562 16.050781 -36.273438 17.90625 -31.953125 L 26.015625 -12.59375 L 38.609375 -42.296875 L 43.109375 -42.296875 L 24.65625 0.90625 L 22.859375 0.90625 Z M 8.90625 -31.953125 "/></g></g></g><g fill="#000000" fill-opacity="1"><g transform="translate(523.079704, 104.453647)"><g><path d="M 22.953125 0.90625 C 18.867188 0.90625 15.414062 -0.0664062 12.59375 -2.015625 C 9.78125 -3.972656 7.648438 -6.613281 6.203125 -9.9375 C 4.765625 -13.269531 4.046875 -17.007812 4.046875 -21.15625 C 4.046875 -25.226562 4.765625 -28.941406 6.203125 -32.296875 C 7.648438 -35.660156 9.738281 -38.316406 12.46875 -40.265625 C 15.195312 -42.222656 18.390625 -43.203125 22.046875 -43.203125 C 28.109375 -43.203125 32.625 -41.503906 35.59375 -38.109375 C 38.5625 -34.722656 40.046875 -29.820312 40.046875 -23.40625 L 39.875 -19.796875 L 12.59375 -19.796875 C 12.59375 -14.753906 13.671875 -10.644531 15.828125 -7.46875 C 17.992188 -4.289062 20.96875 -2.703125 24.75 -2.703125 C 27.570312 -2.703125 29.957031 -3.300781 31.90625 -4.5 C 33.851562 -5.695312 35.664062 -7.5 37.34375 -9.90625 L 39.15625 -8.546875 C 37.175781 -5.242188 34.863281 -2.84375 32.21875 -1.34375 C 29.582031 0.15625 26.492188 0.90625 22.953125 0.90625 Z M 31.5 -23.40625 C 31.5 -28.675781 30.71875 -32.691406 29.15625 -35.453125 C 27.59375 -38.210938 25.222656 -39.59375 22.046875 -39.59375 C 20.242188 -39.59375 18.625 -38.890625 17.1875 -37.484375 C 15.75 -36.078125 14.625 -34.140625 13.8125 -31.671875 C 13 -29.210938 12.59375 -26.457031 12.59375 -23.40625 Z M 31.5 -23.40625 "/></g></g></g></svg>