<svg xmlns="http://www.w3.org/2000/svg" xmlns:xlink="http://www.w3.org/1999/xlink" width="1080" zoomAndPan="magnify" viewBox="0 0 810 149.999998" height="200" preserveAspectRatio="xMidYMid meet" version="1.0"><defs><g/></defs><g fill="#000000" fill-opacity="1"><g transform="translate(222.027327, 104.453647)"><g><path d="M 9.546875 -48.59375 C 9.546875 -51.65625 9.125 -53.921875 8.28125 -55.390625 C 7.4375 -56.859375 5.753906 -57.59375 3.234375 -57.59375 L 1.4375 -57.59375 L 1.4375 -59.40625 L 39.78125 -59.40625 C 44.882812 -59.40625 47.4375 -57.003906 47.4375 -52.203125 L 47.4375 -45.453125 L 45.625 -45.453125 C 45.625 -52.347656 41.875 -55.796875 34.375 -55.796875 L 17.640625 -55.796875 L 17.640625 -32.40625 L 41.9375 -32.40625 L 41.9375 -28.796875 L 17.640625 -28.796875 L 17.640625 -3.59375 L 33.390625 -3.59375 C 37.523438 -3.59375 40.765625 -4.34375 43.109375 -5.84375 C 45.453125 -7.34375 47.3125 -9.894531 48.6875 -13.5 L 50.484375 -13.046875 L 47.34375 -4.5 C 46.257812 -1.5 44.007812 0 40.59375 0 L 9.546875 0 Z M 9.546875 -48.59375 "/></g></g></g><g fill="#000000" fill-opacity="1"><g transform="translate(275.12727, 104.453647)"><g><path d="M 7.828125 -31.5 C 7.828125 -34.5625 7.40625 -36.828125 6.5625 -38.296875 C 5.726562 -39.765625 4.050781 -40.5 1.53125 -40.5 L -0.265625 -40.5 L -0.265625 -42.296875 L 7.828125 -42.296875 C 10.046875 -42.296875 11.738281 -41.992188 12.90625 -41.390625 C 14.082031 -40.796875 14.941406 -39.898438 15.484375 -38.703125 L 15.9375 -38.703125 C 17.1875 -39.960938 18.816406 -41.023438 20.828125 -41.890625 C 22.835938 -42.765625 25.101562 -43.203125 27.625 -43.203125 C 32.125 -43.203125 35.800781 -42 38.65625 -39.59375 C 41.507812 -37.195312 42.9375 -33 42.9375 -27 L 42.9375 0 L 34.828125 0 L 34.828125 -27 C 34.828125 -31.195312 33.878906 -34.269531 31.984375 -36.21875 C 30.097656 -38.175781 27.75 -39.15625 24.9375 -39.15625 C 21.75 -39.15625 18.75 -37.5625 15.9375 -34.375 L 15.9375 0 L 7.828125 0 Z M 7.828125 -31.5 "/></g></g></g><g fill="#000000" fill-opacity="1"><g transform="translate(324.08722, 104.453647)"><g><path d="M 22.953125 0.90625 C 18.867188 0.90625 15.414062 -0.0664062 12.59375 -2.015625 C 9.78125 -3.972656 7.648438 -6.613281 6.203125 -9.9375 C 4.765625 -13.269531 4.046875 -17.007812 4.046875 -21.15625 C 4.046875 -25.226562 4.765625 -28.941406 6.203125 -32.296875 C 7.648438 -35.660156 9.738281 -38.316406 12.46875 -40.265625 C 15.195312 -42.222656 18.390625 -43.203125 22.046875 -43.203125 C 28.109375 -43.203125 32.625 -41.503906 35.59375 -38.109375 C 38.5625 -34.722656 40.046875 -29.820312 40.046875 -23.40625 L 39.875 -19.796875 L 12.59375 -19.796875 C 12.59375 -14.753906 13.671875 -10.644531 15.828125 -7.46875 C 17.992188 -4.289062 20.96875 -2.703125 24.75 -2.703125 C 27.570312 -2.703125 29.957031 -3.300781 31.90625 -4.5 C 33.851562 -5.695312 35.664062 -7.5 37.34375 -9.90625 L 39.15625 -8.546875 C 37.175781 -5.242188 34.863281 -2.84375 32.21875 -1.34375 C 29.582031 0.15625 26.492188 0.90625 22.953125 0.90625 Z M 31.5 -23.40625 C 31.5 -28.675781 30.71875 -32.691406 29.15625 -35.453125 C 27.59375 -38.210938 25.222656 -39.59375 22.046875 -39.59375 C 20.242188 -39.59375 18.625 -38.890625 17.1875 -37.484375 C 15.75 -36.078125 14.625 -34.140625 13.8125 -31.671875 C 13 -29.210938 12.59375 -26.457031 12.59375 -23.40625 Z M 31.5 -23.40625 "/></g></g></g><g fill="#000000" fill-opacity="1"><g transform="translate(368.007182, 104.453647)"><g><path d="M 7.203125 -31.5 C 7.203125 -34.5625 6.78125 -36.828125 5.9375 -38.296875 C 5.101562 -39.765625 3.425781 -40.5 0.90625 -40.5 L 0 -40.5 L 0 -42.296875 L 7.203125 -42.296875 C 9.484375 -42.296875 11.207031 -41.976562 12.375 -41.34375 C 13.539062 -40.71875 14.363281 -39.6875 14.84375 -38.25 L 15.296875 -38.25 C 16.378906 -39.625 17.832031 -40.789062 19.65625 -41.75 C 21.488281 -42.71875 23.632812 -43.203125 26.09375 -43.203125 C 28.5 -43.203125 30.300781 -42.75 31.5 -41.84375 C 32.519531 -41.070312 33.570312 -39.722656 34.65625 -37.796875 L 31.046875 -35.09375 C 30.390625 -36 29.429688 -36.675781 28.171875 -37.125 C 26.910156 -37.570312 25.46875 -37.796875 23.84375 -37.796875 C 22.050781 -37.796875 20.40625 -37.390625 18.90625 -36.578125 C 17.40625 -35.773438 16.203125 -34.679688 15.296875 -33.296875 L 15.296875 0 L 7.203125 0 Z M 7.203125 -31.5 "/></g></g></g><g fill="#000000" fill-opacity="1"><g transform="translate(403.737145, 104.453647)"><g><path d="M 22.140625 18 C 16.078125 18 11.257812 16.890625 7.6875 14.671875 C 4.125 12.453125 2.34375 8.910156 2.34375 4.046875 C 2.34375 1.285156 3.269531 -1.109375 5.125 -3.140625 C 6.988281 -5.179688 9.359375 -6.6875 12.234375 -7.65625 C 9.835938 -8.96875 8.640625 -10.765625 8.640625 -13.046875 C 8.640625 -14.242188 8.910156 -15.171875 9.453125 -15.828125 C 9.992188 -16.492188 10.773438 -17.21875 11.796875 -18 C 9.867188 -18.957031 8.257812 -20.457031 6.96875 -22.5 C 5.6875 -24.539062 5.046875 -26.941406 5.046875 -29.703125 C 5.046875 -38.703125 10.742188 -43.203125 22.140625 -43.203125 L 38.796875 -43.203125 L 38.796875 -40.953125 L 32.9375 -40.046875 L 32.9375 -39.59375 C 34.800781 -38.632812 36.316406 -37.300781 37.484375 -35.59375 C 38.648438 -33.882812 39.234375 -31.921875 39.234375 -29.703125 C 39.234375 -20.703125 33.535156 -16.203125 22.140625 -16.203125 C 15.835938 -16.203125 12.6875 -15.148438 12.6875 -13.046875 C 12.6875 -10.953125 15.835938 -9.90625 22.140625 -9.90625 C 27.960938 -9.90625 32.71875 -8.75 36.40625 -6.4375 C 40.09375 -4.125 41.9375 -0.628906 41.9375 4.046875 C 41.9375 8.910156 40.148438 12.453125 36.578125 14.671875 C 33.015625 16.890625 28.203125 18 22.140625 18 Z M 22.140625 -19.34375 C 24.835938 -19.34375 27.007812 -20.164062 28.65625 -21.8125 C 30.3125 -23.46875 31.140625 -26.097656 31.140625 -29.703125 C 31.140625 -33.117188 30.3125 -35.695312 28.65625 -37.4375 C 27.007812 -39.175781 24.835938 -40.046875 22.140625 -40.046875 C 19.441406 -40.046875 17.265625 -39.21875 15.609375 -37.5625 C 13.960938 -35.914062 13.140625 -33.296875 13.140625 -29.703125 C 13.140625 -26.097656 13.960938 -23.46875 15.609375 -21.8125 C 17.265625 -20.164062 19.441406 -19.34375 22.140625 -19.34375 Z M 22.140625 14.40625 C 25.742188 14.40625 28.59375 13.546875 30.6875 11.828125 C 32.789062 10.117188 33.84375 7.523438 33.84375 4.046875 C 33.84375 -1.953125 30.242188 -5.398438 23.046875 -6.296875 L 18.09375 -6.75 C 15.632812 -5.789062 13.742188 -4.441406 12.421875 -2.703125 C 11.097656 -0.960938 10.4375 1.285156 10.4375 4.046875 C 10.4375 7.523438 11.484375 10.117188 13.578125 11.828125 C 15.679688 13.546875 18.535156 14.40625 22.140625 14.40625 Z M 22.140625 14.40625 "/></g></g></g><g fill="#000000" fill-opacity="1"><g transform="translate(448.017091, 104.453647)"><g><path d="M 22.953125 0.90625 C 18.867188 0.90625 15.414062 -0.0664062 12.59375 -2.015625 C 9.78125 -3.972656 7.648438 -6.613281 6.203125 -9.9375 C 4.765625 -13.269531 4.046875 -17.007812 4.046875 -21.15625 C 4.046875 -25.226562 4.765625 -28.941406 6.203125 -32.296875 C 7.648438 -35.660156 9.738281 -38.316406 12.46875 -40.265625 C 15.195312 -42.222656 18.390625 -43.203125 22.046875 -43.203125 C 28.109375 -43.203125 32.625 -41.503906 35.59375 -38.109375 C 38.5625 -34.722656 40.046875 -29.820312 40.046875 -23.40625 L 39.875 -19.796875 L 12.59375 -19.796875 C 12.59375 -14.753906 13.671875 -10.644531 15.828125 -7.46875 C 17.992188 -4.289062 20.96875 -2.703125 24.75 -2.703125 C 27.570312 -2.703125 29.957031 -3.300781 31.90625 -4.5 C 33.851562 -5.695312 35.664062 -7.5 37.34375 -9.90625 L 39.15625 -8.546875 C 37.175781 -5.242188 34.863281 -2.84375 32.21875 -1.34375 C 29.582031 0.15625 26.492188 0.90625 22.953125 0.90625 Z M 31.5 -23.40625 C 31.5 -28.675781 30.71875 -32.691406 29.15625 -35.453125 C 27.59375 -38.210938 25.222656 -39.59375 22.046875 -39.59375 C 20.242188 -39.59375 18.625 -38.890625 17.1875 -37.484375 C 15.75 -36.078125 14.625 -34.140625 13.8125 -31.671875 C 13 -29.210938 12.59375 -26.457031 12.59375 -23.40625 Z M 31.5 -23.40625 "/></g></g></g><g fill="#000000" fill-opacity="1"><g transform="translate(491.937042, 104.453647)"><g><path d="M 18.984375 0.90625 C 15.628906 0.90625 12.988281 -0.0507812 11.0625 -1.96875 C 9.144531 -3.894531 8.1875 -6.835938 8.1875 -10.796875 L 8.1875 -38.703125 L 1.890625 -38.703125 L 1.890625 -42.296875 L 8.1875 -42.296875 L 8.1875 -50.40625 L 12.6875 -55.796875 L 16.296875 -55.796875 L 16.296875 -42.296875 L 27.09375 -42.296875 L 27.09375 -38.703125 L 16.296875 -38.703125 L 16.296875 -10.796875 C 16.296875 -5.398438 18.394531 -2.703125 22.59375 -2.703125 C 24.03125 -2.703125 25.242188 -2.847656 26.234375 -3.140625 C 27.222656 -3.441406 28.257812 -3.894531 29.34375 -4.5 L 30.234375 -2.703125 C 28.859375 -1.679688 27.328125 -0.820312 25.640625 -0.125 C 23.960938 0.5625 21.742188 0.90625 18.984375 0.90625 Z M 18.984375 0.90625 "/></g></g></g><g fill="#000000" fill-opacity="1"><g transform="translate(522.357015, 104.453647)"><g><path d="M 11.25 -47.703125 C 9.875 -47.703125 8.6875 -48.269531 7.6875 -49.40625 C 6.695312 -50.550781 6.203125 -51.898438 6.203125 -53.453125 C 6.203125 -54.710938 6.578125 -55.703125 7.328125 -56.421875 C 8.078125 -57.148438 9.082031 -57.515625 10.34375 -57.515625 C 11.726562 -57.515625 12.914062 -56.941406 13.90625 -55.796875 C 14.894531 -54.660156 15.390625 -53.3125 15.390625 -51.75 C 15.390625 -50.488281 15.015625 -49.5 14.265625 -48.78125 C 13.515625 -48.0625 12.507812 -47.703125 11.25 -47.703125 Z M 7.828125 -31.5 C 7.828125 -34.5625 7.40625 -36.828125 6.5625 -38.296875 C 5.726562 -39.765625 4.050781 -40.5 1.53125 -40.5 L -0.265625 -40.5 L -0.265625 -42.296875 L 7.828125 -42.296875 C 10.046875 -42.296875 11.707031 -42.007812 12.8125 -41.4375 C 13.925781 -40.875 14.722656 -39.84375 15.203125 -38.34375 C 15.691406 -36.84375 15.9375 -34.5625 15.9375 -31.5 L 15.9375 0 L 7.828125 0 Z M 7.828125 -31.5 "/></g></g></g><g fill="#000000" fill-opacity="1"><g transform="translate(544.497006, 104.453647)"><g><path d="M 23.84375 0.90625 C 19.53125 0.90625 15.882812 -0.0664062 12.90625 -2.015625 C 9.9375 -3.972656 7.71875 -6.613281 6.25 -9.9375 C 4.78125 -13.269531 4.046875 -17.007812 4.046875 -21.15625 C 4.046875 -25.289062 4.78125 -29.019531 6.25 -32.34375 C 7.71875 -35.675781 9.9375 -38.316406 12.90625 -40.265625 C 15.882812 -42.222656 19.53125 -43.203125 23.84375 -43.203125 C 30.445312 -43.203125 34.800781 -42.148438 36.90625 -40.046875 C 37.925781 -39.023438 38.554688 -37.78125 38.796875 -36.3125 C 39.035156 -34.84375 39.15625 -32.1875 39.15625 -28.34375 L 37.34375 -28.34375 C 37.101562 -32.070312 35.929688 -34.878906 33.828125 -36.765625 C 31.734375 -38.648438 29.007812 -39.59375 25.65625 -39.59375 C 21.332031 -39.59375 18.070312 -37.882812 15.875 -34.46875 C 13.6875 -31.050781 12.59375 -26.613281 12.59375 -21.15625 C 12.59375 -15.6875 13.6875 -11.242188 15.875 -7.828125 C 18.070312 -4.410156 21.332031 -2.703125 25.65625 -2.703125 C 28.707031 -2.703125 31.222656 -3.285156 33.203125 -4.453125 C 35.191406 -5.617188 37.023438 -7.4375 38.703125 -9.90625 L 40.5 -8.546875 C 38.519531 -5.191406 36.179688 -2.773438 33.484375 -1.296875 C 30.785156 0.171875 27.570312 0.90625 23.84375 0.90625 Z M 23.84375 0.90625 "/></g></g></g></svg>