<svg xmlns="http://www.w3.org/2000/svg" xmlns:xlink="http://www.w3.org/1999/xlink" width="1080" zoomAndPan="magnify" viewBox="0 0 810 149.999998" height="200" preserveAspectRatio="xMidYMid meet" version="1.0"><defs><g/></defs><g fill="#000000" fill-opacity="1"><g transform="translate(138.374999, 104.453647)"><g><path d="M 9.546875 -48.59375 C 9.546875 -51.65625 9.125 -53.921875 8.28125 -55.390625 C 7.4375 -56.859375 5.753906 -57.59375 3.234375 -57.59375 L 1.4375 -57.59375 L 1.4375 -59.40625 L 9.546875 -59.40625 C 11.765625 -59.40625 13.425781 -59.117188 14.53125 -58.546875 C 15.644531 -57.972656 16.441406 -56.9375 16.921875 -55.4375 C 17.398438 -53.9375 17.640625 -51.65625 17.640625 -48.59375 L 17.640625 -32.40625 L 44.640625 -32.40625 L 44.640625 -59.40625 L 52.734375 -59.40625 L 52.734375 -10.796875 C 52.734375 -7.734375 53.15625 -5.46875 54 -4 C 54.84375 -2.53125 56.523438 -1.796875 59.046875 -1.796875 L 60.84375 -1.796875 L 60.84375 0 L 52.734375 0 C 50.515625 0 48.847656 -0.28125 47.734375 -0.84375 C 46.628906 -1.414062 45.835938 -2.453125 45.359375 -3.953125 C 44.878906 -5.453125 44.640625 -7.734375 44.640625 -10.796875 L 44.640625 -28.796875 L 17.640625 -28.796875 L 17.640625 0 L 9.546875 0 Z M 9.546875 -48.59375 "/></g></g></g><g fill="#000000" fill-opacity="1"><g transform="translate(200.74494, 104.453647)"><g><path d="M 16.5625 0.90625 C 14.644531 0.90625 12.691406 0.5 10.703125 -0.3125 C 8.722656 -1.125 7.03125 -2.457031 5.625 -4.3125 C 4.21875 -6.175781 3.515625 -8.640625 3.515625 -11.703125 C 3.515625 -16.265625 5.628906 -19.503906 9.859375 -21.421875 C 14.085938 -23.335938 19.617188 -24.296875 26.453125 -24.296875 L 29.15625 -24.296875 C 29.15625 -30.179688 28.34375 -34.203125 26.71875 -36.359375 C 25.101562 -38.515625 22.765625 -39.59375 19.703125 -39.59375 C 17.003906 -39.59375 14.84375 -39.023438 13.21875 -37.890625 C 11.601562 -36.753906 10.46875 -34.773438 9.8125 -31.953125 L 5.765625 -31.953125 C 5.765625 -33.992188 5.882812 -35.597656 6.125 -36.765625 C 6.363281 -37.929688 6.992188 -39.023438 8.015625 -40.046875 C 9.085938 -41.128906 10.867188 -41.925781 13.359375 -42.4375 C 15.847656 -42.945312 18.566406 -43.203125 21.515625 -43.203125 C 26.367188 -43.203125 30.207031 -41.894531 33.03125 -39.28125 C 35.851562 -36.675781 37.265625 -31.679688 37.265625 -24.296875 L 37.265625 0 L 32.765625 0 L 29.609375 -4.046875 L 29.15625 -4.046875 C 28.082031 -2.671875 26.492188 -1.5 24.390625 -0.53125 C 22.285156 0.425781 19.675781 0.90625 16.5625 0.90625 Z M 20.609375 -3.15625 C 22.585938 -3.15625 24.238281 -3.632812 25.5625 -4.59375 C 26.882812 -5.550781 28.082031 -6.867188 29.15625 -8.546875 L 29.15625 -20.703125 L 26.453125 -20.703125 C 22.015625 -20.703125 18.503906 -19.875 15.921875 -18.21875 C 13.347656 -16.570312 12.0625 -14.398438 12.0625 -11.703125 C 12.0625 -8.941406 12.882812 -6.828125 14.53125 -5.359375 C 16.1875 -3.890625 18.210938 -3.15625 20.609375 -3.15625 Z M 20.609375 -3.15625 "/></g></g></g><g fill="#000000" fill-opacity="1"><g transform="translate(244.034893, 104.453647)"><g><path d="M 7.203125 -31.5 C 7.203125 -34.5625 6.78125 -36.828125 5.9375 -38.296875 C 5.101562 -39.765625 3.425781 -40.5 0.90625 -40.5 L 0 -40.5 L 0 -42.296875 L 7.203125 -42.296875 C 9.484375 -42.296875 11.207031 -41.976562 12.375 -41.34375 C 13.539062 -40.71875 14.363281 -39.6875 14.84375 -38.25 L 15.296875 -38.25 C 16.378906 -39.625 17.832031 -40.789062 19.65625 -41.75 C 21.488281 -42.71875 23.632812 -43.203125 26.09375 -43.203125 C 28.5 -43.203125 30.300781 -42.75 31.5 -41.84375 C 32.519531 -41.070312 33.570312 -39.722656 34.65625 -37.796875 L 31.046875 -35.09375 C 30.390625 -36 29.429688 -36.675781 28.171875 -37.125 C 26.910156 -37.570312 25.46875 -37.796875 23.84375 -37.796875 C 22.050781 -37.796875 20.40625 -37.390625 18.90625 -36.578125 C 17.40625 -35.773438 16.203125 -34.679688 15.296875 -33.296875 L 15.296875 0 L 7.203125 0 Z M 7.203125 -31.5 "/></g></g></g><g fill="#000000" fill-opacity="1"><g transform="translate(279.764856, 104.453647)"><g><path d="M 20.4375 0.90625 C 15.207031 0.90625 11.195312 -1.160156 8.40625 -5.296875 C 5.625 -9.441406 4.234375 -14.726562 4.234375 -21.15625 C 4.234375 -27.570312 5.6875 -32.847656 8.59375 -36.984375 C 11.5 -41.128906 15.742188 -43.203125 21.328125 -43.203125 C 23.609375 -43.203125 25.617188 -42.960938 27.359375 -42.484375 C 29.097656 -42.003906 30.835938 -41.34375 32.578125 -40.5 L 32.578125 -48.59375 C 32.578125 -51.65625 32.15625 -53.921875 31.3125 -55.390625 C 30.476562 -56.859375 28.800781 -57.59375 26.28125 -57.59375 L 24.484375 -57.59375 L 24.484375 -59.40625 L 32.578125 -59.40625 C 34.796875 -59.40625 36.457031 -59.117188 37.5625 -58.546875 C 38.675781 -57.972656 39.472656 -56.9375 39.953125 -55.4375 C 40.441406 -53.9375 40.6875 -51.65625 40.6875 -48.59375 L 40.6875 0 L 36.1875 0 L 33.03125 -4.046875 L 32.578125 -4.046875 C 31.253906 -2.546875 29.707031 -1.34375 27.9375 -0.4375 C 26.175781 0.457031 23.675781 0.90625 20.4375 0.90625 Z M 23.125 -2.703125 C 25.582031 -2.703125 27.441406 -3.148438 28.703125 -4.046875 C 29.960938 -4.953125 31.253906 -6.300781 32.578125 -8.09375 L 32.578125 -36.90625 C 30.773438 -37.738281 29.210938 -38.394531 27.890625 -38.875 C 26.578125 -39.351562 25.289062 -39.59375 24.03125 -39.59375 C 20.1875 -39.59375 17.347656 -37.910156 15.515625 -34.546875 C 13.691406 -31.191406 12.78125 -26.726562 12.78125 -21.15625 C 12.78125 -15.632812 13.648438 -11.175781 15.390625 -7.78125 C 17.128906 -4.394531 19.707031 -2.703125 23.125 -2.703125 Z M 23.125 -2.703125 "/></g></g></g><g fill="#000000" fill-opacity="1"><g transform="translate(326.924811, 104.453647)"><g><path d="M 5.9375 -27 L 28.890625 -27 L 28.890625 -20.703125 L 5.9375 -20.703125 Z M 5.9375 -27 "/></g></g></g><g fill="#000000" fill-opacity="1"><g transform="translate(361.754777, 104.453647)"><g><path d="M 9 -31.953125 C 7.625 -35.304688 6.257812 -37.660156 4.90625 -39.015625 C 3.550781 -40.367188 1.765625 -41.101562 -0.453125 -41.21875 L -0.453125 -43.015625 C -0.148438 -43.015625 0.296875 -43.046875 0.890625 -43.109375 C 1.492188 -43.171875 2.097656 -43.203125 2.703125 -43.203125 C 5.941406 -43.203125 8.804688 -42.375 11.296875 -40.71875 C 13.785156 -39.070312 15.867188 -36.148438 17.546875 -31.953125 L 25.203125 -13.046875 L 32.84375 -32.40625 C 31.40625 -35.582031 30.039062 -37.816406 28.75 -39.109375 C 27.457031 -40.398438 25.820312 -41.101562 23.84375 -41.21875 L 23.84375 -43.015625 C 24.144531 -43.015625 24.59375 -43.046875 25.1875 -43.109375 C 25.789062 -43.171875 26.394531 -43.203125 27 -43.203125 C 30.238281 -43.203125 33.101562 -42.375 35.59375 -40.71875 C 38.082031 -39.070312 40.164062 -36.148438 41.84375 -31.953125 L 49.5 -13.046875 L 61.203125 -42.296875 L 65.703125 -42.296875 L 48.15625 0.90625 L 46.34375 0.90625 L 35.09375 -27 L 23.84375 0.90625 L 22.046875 0.90625 Z M 9 -31.953125 "/></g></g></g><g fill="#000000" fill-opacity="1"><g transform="translate(429.164708, 104.453647)"><g><path d="M 23.84375 0.90625 C 19.769531 0.90625 16.234375 -0.0664062 13.234375 -2.015625 C 10.234375 -3.972656 7.953125 -6.628906 6.390625 -9.984375 C 4.828125 -13.347656 4.046875 -17.070312 4.046875 -21.15625 C 4.046875 -25.226562 4.828125 -28.941406 6.390625 -32.296875 C 7.953125 -35.660156 10.234375 -38.316406 13.234375 -40.265625 C 16.234375 -42.222656 19.769531 -43.203125 23.84375 -43.203125 C 27.925781 -43.203125 31.46875 -42.222656 34.46875 -40.265625 C 37.46875 -38.316406 39.75 -35.660156 41.3125 -32.296875 C 42.875 -28.941406 43.65625 -25.226562 43.65625 -21.15625 C 43.65625 -17.070312 42.875 -13.347656 41.3125 -9.984375 C 39.75 -6.628906 37.46875 -3.972656 34.46875 -2.015625 C 31.46875 -0.0664062 27.925781 0.90625 23.84375 0.90625 Z M 23.84375 -2.703125 C 26.070312 -2.703125 28.039062 -3.507812 29.75 -5.125 C 31.457031 -6.75 32.773438 -8.96875 33.703125 -11.78125 C 34.628906 -14.601562 35.09375 -17.726562 35.09375 -21.15625 C 35.09375 -24.570312 34.628906 -27.6875 33.703125 -30.5 C 32.773438 -33.320312 31.457031 -35.539062 29.75 -37.15625 C 28.039062 -38.78125 26.070312 -39.59375 23.84375 -39.59375 C 21.625 -39.59375 19.660156 -38.78125 17.953125 -37.15625 C 16.242188 -35.539062 14.921875 -33.320312 13.984375 -30.5 C 13.054688 -27.6875 12.59375 -24.570312 12.59375 -21.15625 C 12.59375 -17.726562 13.054688 -14.601562 13.984375 -11.78125 C 14.921875 -8.96875 16.242188 -6.75 17.953125 -5.125 C 19.660156 -3.507812 21.625 -2.703125 23.84375 -2.703125 Z M 23.84375 -2.703125 "/></g></g></g><g fill="#000000" fill-opacity="1"><g transform="translate(476.864664, 104.453647)"><g><path d="M 7.203125 -31.5 C 7.203125 -34.5625 6.78125 -36.828125 5.9375 -38.296875 C 5.101562 -39.765625 3.425781 -40.5 0.90625 -40.5 L 0 -40.5 L 0 -42.296875 L 7.203125 -42.296875 C 9.484375 -42.296875 11.207031 -41.976562 12.375 -41.34375 C 13.539062 -40.71875 14.363281 -39.6875 14.84375 -38.25 L 15.296875 -38.25 C 16.378906 -39.625 17.832031 -40.789062 19.65625 -41.75 C 21.488281 -42.71875 23.632812 -43.203125 26.09375 -43.203125 C 28.5 -43.203125 30.300781 -42.75 31.5 -41.84375 C 32.519531 -41.070312 33.570312 -39.722656 34.65625 -37.796875 L 31.046875 -35.09375 C 30.390625 -36 29.429688 -36.675781 28.171875 -37.125 C 26.910156 -37.570312 25.46875 -37.796875 23.84375 -37.796875 C 22.050781 -37.796875 20.40625 -37.390625 18.90625 -36.578125 C 17.40625 -35.773438 16.203125 -34.679688 15.296875 -33.296875 L 15.296875 0 L 7.203125 0 Z M 7.203125 -31.5 "/></g></g></g><g fill="#000000" fill-opacity="1"><g transform="translate(512.594627, 104.453647)"><g><path d="M 38.4375 0.90625 C 33.332031 0.90625 28.976562 -1.492188 25.375 -6.296875 L 14.578125 -20.703125 L 14.578125 0 L 6.484375 0 L 6.484375 -48.59375 C 6.484375 -51.65625 6.0625 -53.921875 5.21875 -55.390625 C 4.375 -56.859375 2.695312 -57.59375 0.1875 -57.59375 L -1.625 -57.59375 L -1.625 -59.40625 L 6.484375 -59.40625 C 8.703125 -59.40625 10.363281 -59.117188 11.46875 -58.546875 C 12.582031 -57.972656 13.378906 -56.9375 13.859375 -55.4375 C 14.335938 -53.9375 14.578125 -51.65625 14.578125 -48.59375 L 14.578125 -22.046875 L 25.828125 -36.453125 C 27.390625 -38.367188 29.039062 -39.820312 30.78125 -40.8125 C 32.519531 -41.800781 34.769531 -42.296875 37.53125 -42.296875 L 40.234375 -42.296875 L 40.234375 -40.046875 C 38.609375 -40.046875 37.046875 -39.710938 35.546875 -39.046875 C 34.046875 -38.390625 32.757812 -37.375 31.6875 -36 L 21.78125 -23.40625 L 33.03125 -9 C 34.769531 -6.71875 36.40625 -5.003906 37.9375 -3.859375 C 39.46875 -2.722656 41.132812 -2.003906 42.9375 -1.703125 L 42.9375 0 C 41.613281 0.601562 40.113281 0.90625 38.4375 0.90625 Z M 38.4375 0.90625 "/></g></g></g><g fill="#000000" fill-opacity="1"><g transform="translate(556.244588, 104.453647)"><g><path d="M 11.25 -47.703125 C 9.875 -47.703125 8.6875 -48.269531 7.6875 -49.40625 C 6.695312 -50.550781 6.203125 -51.898438 6.203125 -53.453125 C 6.203125 -54.710938 6.578125 -55.703125 7.328125 -56.421875 C 8.078125 -57.148438 9.082031 -57.515625 10.34375 -57.515625 C 11.726562 -57.515625 12.914062 -56.941406 13.90625 -55.796875 C 14.894531 -54.660156 15.390625 -53.3125 15.390625 -51.75 C 15.390625 -50.488281 15.015625 -49.5 14.265625 -48.78125 C 13.515625 -48.0625 12.507812 -47.703125 11.25 -47.703125 Z M 7.828125 -31.5 C 7.828125 -34.5625 7.40625 -36.828125 6.5625 -38.296875 C 5.726562 -39.765625 4.050781 -40.5 1.53125 -40.5 L -0.265625 -40.5 L -0.265625 -42.296875 L 7.828125 -42.296875 C 10.046875 -42.296875 11.707031 -42.007812 12.8125 -41.4375 C 13.925781 -40.875 14.722656 -39.84375 15.203125 -38.34375 C 15.691406 -36.84375 15.9375 -34.5625 15.9375 -31.5 L 15.9375 0 L 7.828125 0 Z M 7.828125 -31.5 "/></g></g></g><g fill="#000000" fill-opacity="1"><g transform="translate(578.384555, 104.453647)"><g><path d="M 7.828125 -31.5 C 7.828125 -34.5625 7.40625 -36.828125 6.5625 -38.296875 C 5.726562 -39.765625 4.050781 -40.5 1.53125 -40.5 L -0.265625 -40.5 L -0.265625 -42.296875 L 7.828125 -42.296875 C 10.046875 -42.296875 11.738281 -41.992188 12.90625 -41.390625 C 14.082031 -40.796875 14.941406 -39.898438 15.484375 -38.703125 L 15.9375 -38.703125 C 17.1875 -39.960938 18.816406 -41.023438 20.828125 -41.890625 C 22.835938 -42.765625 25.101562 -43.203125 27.625 -43.203125 C 32.125 -43.203125 35.800781 -42 38.65625 -39.59375 C 41.507812 -37.195312 42.9375 -33 42.9375 -27 L 42.9375 0 L 34.828125 0 L 34.828125 -27 C 34.828125 -31.195312 33.878906 -34.269531 31.984375 -36.21875 C 30.097656 -38.175781 27.75 -39.15625 24.9375 -39.15625 C 21.75 -39.15625 18.75 -37.5625 15.9375 -34.375 L 15.9375 0 L 7.828125 0 Z M 7.828125 -31.5 "/></g></g></g><g fill="#000000" fill-opacity="1"><g transform="translate(627.344483, 104.453647)"><g><path d="M 22.140625 18 C 16.078125 18 11.257812 16.890625 7.6875 14.671875 C 4.125 12.453125 2.34375 8.910156 2.34375 4.046875 C 2.34375 1.285156 3.269531 -1.109375 5.125 -3.140625 C 6.988281 -5.179688 9.359375 -6.6875 12.234375 -7.65625 C 9.835938 -8.96875 8.640625 -10.765625 8.640625 -13.046875 C 8.640625 -14.242188 8.910156 -15.171875 9.453125 -15.828125 C 9.992188 -16.492188 10.773438 -17.21875 11.796875 -18 C 9.867188 -18.957031 8.257812 -20.457031 6.96875 -22.5 C 5.6875 -24.539062 5.046875 -26.941406 5.046875 -29.703125 C 5.046875 -38.703125 10.742188 -43.203125 22.140625 -43.203125 L 38.796875 -43.203125 L 38.796875 -40.953125 L 32.9375 -40.046875 L 32.9375 -39.59375 C 34.800781 -38.632812 36.316406 -37.300781 37.484375 -35.59375 C 38.648438 -33.882812 39.234375 -31.921875 39.234375 -29.703125 C 39.234375 -20.703125 33.535156 -16.203125 22.140625 -16.203125 C 15.835938 -16.203125 12.6875 -15.148438 12.6875 -13.046875 C 12.6875 -10.953125 15.835938 -9.90625 22.140625 -9.90625 C 27.960938 -9.90625 32.71875 -8.75 36.40625 -6.4375 C 40.09375 -4.125 41.9375 -0.628906 41.9375 4.046875 C 41.9375 8.910156 40.148438 12.453125 36.578125 14.671875 C 33.015625 16.890625 28.203125 18 22.140625 18 Z M 22.140625 -19.34375 C 24.835938 -19.34375 27.007812 -20.164062 28.65625 -21.8125 C 30.3125 -23.46875 31.140625 -26.097656 31.140625 -29.703125 C 31.140625 -33.117188 30.3125 -35.695312 28.65625 -37.4375 C 27.007812 -39.175781 24.835938 -40.046875 22.140625 -40.046875 C 19.441406 -40.046875 17.265625 -39.21875 15.609375 -37.5625 C 13.960938 -35.914062 13.140625 -33.296875 13.140625 -29.703125 C 13.140625 -26.097656 13.960938 -23.46875 15.609375 -21.8125 C 17.265625 -20.164062 19.441406 -19.34375 22.140625 -19.34375 Z M 22.140625 14.40625 C 25.742188 14.40625 28.59375 13.546875 30.6875 11.828125 C 32.789062 10.117188 33.84375 7.523438 33.84375 4.046875 C 33.84375 -1.953125 30.242188 -5.398438 23.046875 -6.296875 L 18.09375 -6.75 C 15.632812 -5.789062 13.742188 -4.441406 12.421875 -2.703125 C 11.097656 -0.960938 10.4375 1.285156 10.4375 4.046875 C 10.4375 7.523438 11.484375 10.117188 13.578125 11.828125 C 15.679688 13.546875 18.535156 14.40625 22.140625 14.40625 Z M 22.140625 14.40625 "/></g></g></g></svg>