<svg xmlns="http://www.w3.org/2000/svg" xmlns:xlink="http://www.w3.org/1999/xlink" width="1080" zoomAndPan="magnify" viewBox="0 0 810 149.999998" height="200" preserveAspectRatio="xMidYMid meet" version="1.0"><defs><g/></defs><g fill="#000000" fill-opacity="1"><g transform="translate(200.156246, 104.453647)"><g><path d="M 9.546875 -48.59375 C 9.546875 -51.65625 9.125 -53.921875 8.28125 -55.390625 C 7.4375 -56.859375 5.753906 -57.59375 3.234375 -57.59375 L 1.4375 -57.59375 L 1.4375 -59.40625 L 24.84375 -59.40625 C 30.601562 -59.40625 35.789062 -58.171875 40.40625 -55.703125 C 45.03125 -53.242188 47.34375 -48.476562 47.34375 -41.40625 C 47.34375 -36.71875 46.140625 -33.113281 43.734375 -30.59375 C 41.335938 -28.070312 38.65625 -26.390625 35.6875 -25.546875 C 32.71875 -24.710938 30.003906 -24.296875 27.546875 -24.296875 L 17.640625 -24.296875 L 17.640625 0 L 9.546875 0 Z M 24.390625 -27.453125 C 26.304688 -27.453125 28.34375 -27.945312 30.5 -28.9375 C 32.664062 -29.925781 34.515625 -31.5 36.046875 -33.65625 C 37.578125 -35.820312 38.34375 -38.550781 38.34375 -41.84375 C 38.34375 -45.144531 37.578125 -47.875 36.046875 -50.03125 C 34.515625 -52.195312 32.664062 -53.773438 30.5 -54.765625 C 28.34375 -55.753906 26.304688 -56.25 24.390625 -56.25 C 22.285156 -56.25 20.035156 -55.945312 17.640625 -55.34375 L 17.640625 -28.34375 C 20.035156 -27.75 22.285156 -27.453125 24.390625 -27.453125 Z M 24.390625 -27.453125 "/></g></g></g><g fill="#000000" fill-opacity="1"><g transform="translate(249.836201, 104.453647)"><g><path d="M 16.5625 0.90625 C 14.644531 0.90625 12.691406 0.5 10.703125 -0.3125 C 8.722656 -1.125 7.03125 -2.457031 5.625 -4.3125 C 4.21875 -6.175781 3.515625 -8.640625 3.515625 -11.703125 C 3.515625 -16.265625 5.628906 -19.503906 9.859375 -21.421875 C 14.085938 -23.335938 19.617188 -24.296875 26.453125 -24.296875 L 29.15625 -24.296875 C 29.15625 -30.179688 28.34375 -34.203125 26.71875 -36.359375 C 25.101562 -38.515625 22.765625 -39.59375 19.703125 -39.59375 C 17.003906 -39.59375 14.84375 -39.023438 13.21875 -37.890625 C 11.601562 -36.753906 10.46875 -34.773438 9.8125 -31.953125 L 5.765625 -31.953125 C 5.765625 -33.992188 5.882812 -35.597656 6.125 -36.765625 C 6.363281 -37.929688 6.992188 -39.023438 8.015625 -40.046875 C 9.085938 -41.128906 10.867188 -41.925781 13.359375 -42.4375 C 15.847656 -42.945312 18.566406 -43.203125 21.515625 -43.203125 C 26.367188 -43.203125 30.207031 -41.894531 33.03125 -39.28125 C 35.851562 -36.675781 37.265625 -31.679688 37.265625 -24.296875 L 37.265625 0 L 32.765625 0 L 29.609375 -4.046875 L 29.15625 -4.046875 C 28.082031 -2.671875 26.492188 -1.5 24.390625 -0.53125 C 22.285156 0.425781 19.675781 0.90625 16.5625 0.90625 Z M 20.609375 -3.15625 C 22.585938 -3.15625 24.238281 -3.632812 25.5625 -4.59375 C 26.882812 -5.550781 28.082031 -6.867188 29.15625 -8.546875 L 29.15625 -20.703125 L 26.453125 -20.703125 C 22.015625 -20.703125 18.503906 -19.875 15.921875 -18.21875 C 13.347656 -16.570312 12.0625 -14.398438 12.0625 -11.703125 C 12.0625 -8.941406 12.882812 -6.828125 14.53125 -5.359375 C 16.1875 -3.890625 18.210938 -3.15625 20.609375 -3.15625 Z M 20.609375 -3.15625 "/></g></g></g><g fill="#000000" fill-opacity="1"><g transform="translate(293.126154, 104.453647)"><g><path d="M 20.609375 0.90625 C 13.710938 0.90625 9.0625 -0.296875 6.65625 -2.703125 C 5.632812 -3.722656 5.003906 -4.875 4.765625 -6.15625 C 4.523438 -7.445312 4.40625 -9.445312 4.40625 -12.15625 L 6.203125 -12.15625 C 6.742188 -9.15625 8.050781 -6.828125 10.125 -5.171875 C 12.195312 -3.523438 15.09375 -2.703125 18.8125 -2.703125 C 22.113281 -2.703125 24.585938 -3.269531 26.234375 -4.40625 C 27.878906 -5.550781 28.703125 -7.082031 28.703125 -9 C 28.703125 -10.738281 28.054688 -12.238281 26.765625 -13.5 C 25.484375 -14.757812 23.429688 -15.957031 20.609375 -17.09375 L 15.203125 -19.34375 C 11.609375 -20.789062 8.910156 -22.472656 7.109375 -24.390625 C 5.304688 -26.304688 4.40625 -28.675781 4.40625 -31.5 C 4.40625 -35.15625 5.785156 -38.019531 8.546875 -40.09375 C 11.304688 -42.164062 14.878906 -43.203125 19.265625 -43.203125 C 25.859375 -43.203125 30.359375 -42 32.765625 -39.59375 C 33.785156 -38.570312 34.414062 -37.429688 34.65625 -36.171875 C 34.894531 -34.921875 35.015625 -32.914062 35.015625 -30.15625 L 33.203125 -30.15625 C 32.722656 -33.15625 31.460938 -35.476562 29.421875 -37.125 C 27.390625 -38.769531 24.601562 -39.59375 21.0625 -39.59375 C 18.238281 -39.59375 16.03125 -39.007812 14.4375 -37.84375 C 12.851562 -36.675781 12.0625 -35.160156 12.0625 -33.296875 C 12.0625 -30.179688 14.460938 -27.632812 19.265625 -25.65625 L 24.65625 -23.40625 C 28.738281 -21.71875 31.707031 -19.925781 33.5625 -18.03125 C 35.425781 -16.144531 36.359375 -13.734375 36.359375 -10.796875 C 36.359375 -7.140625 34.890625 -4.273438 31.953125 -2.203125 C 29.015625 -0.128906 25.234375 0.90625 20.609375 0.90625 Z M 20.609375 0.90625 "/></g></g></g><g fill="#000000" fill-opacity="1"><g transform="translate(333.266109, 104.453647)"><g><path d="M 20.609375 0.90625 C 13.710938 0.90625 9.0625 -0.296875 6.65625 -2.703125 C 5.632812 -3.722656 5.003906 -4.875 4.765625 -6.15625 C 4.523438 -7.445312 4.40625 -9.445312 4.40625 -12.15625 L 6.203125 -12.15625 C 6.742188 -9.15625 8.050781 -6.828125 10.125 -5.171875 C 12.195312 -3.523438 15.09375 -2.703125 18.8125 -2.703125 C 22.113281 -2.703125 24.585938 -3.269531 26.234375 -4.40625 C 27.878906 -5.550781 28.703125 -7.082031 28.703125 -9 C 28.703125 -10.738281 28.054688 -12.238281 26.765625 -13.5 C 25.484375 -14.757812 23.429688 -15.957031 20.609375 -17.09375 L 15.203125 -19.34375 C 11.609375 -20.789062 8.910156 -22.472656 7.109375 -24.390625 C 5.304688 -26.304688 4.40625 -28.675781 4.40625 -31.5 C 4.40625 -35.15625 5.785156 -38.019531 8.546875 -40.09375 C 11.304688 -42.164062 14.878906 -43.203125 19.265625 -43.203125 C 25.859375 -43.203125 30.359375 -42 32.765625 -39.59375 C 33.785156 -38.570312 34.414062 -37.429688 34.65625 -36.171875 C 34.894531 -34.921875 35.015625 -32.914062 35.015625 -30.15625 L 33.203125 -30.15625 C 32.722656 -33.15625 31.460938 -35.476562 29.421875 -37.125 C 27.390625 -38.769531 24.601562 -39.59375 21.0625 -39.59375 C 18.238281 -39.59375 16.03125 -39.007812 14.4375 -37.84375 C 12.851562 -36.675781 12.0625 -35.160156 12.0625 -33.296875 C 12.0625 -30.179688 14.460938 -27.632812 19.265625 -25.65625 L 24.65625 -23.40625 C 28.738281 -21.71875 31.707031 -19.925781 33.5625 -18.03125 C 35.425781 -16.144531 36.359375 -13.734375 36.359375 -10.796875 C 36.359375 -7.140625 34.890625 -4.273438 31.953125 -2.203125 C 29.015625 -0.128906 25.234375 0.90625 20.609375 0.90625 Z M 20.609375 0.90625 "/></g></g></g><g fill="#000000" fill-opacity="1"><g transform="translate(373.406064, 104.453647)"><g><path d="M 11.25 -47.703125 C 9.875 -47.703125 8.6875 -48.269531 7.6875 -49.40625 C 6.695312 -50.550781 6.203125 -51.898438 6.203125 -53.453125 C 6.203125 -54.710938 6.578125 -55.703125 7.328125 -56.421875 C 8.078125 -57.148438 9.082031 -57.515625 10.34375 -57.515625 C 11.726562 -57.515625 12.914062 -56.941406 13.90625 -55.796875 C 14.894531 -54.660156 15.390625 -53.3125 15.390625 -51.75 C 15.390625 -50.488281 15.015625 -49.5 14.265625 -48.78125 C 13.515625 -48.0625 12.507812 -47.703125 11.25 -47.703125 Z M 7.828125 -31.5 C 7.828125 -34.5625 7.40625 -36.828125 6.5625 -38.296875 C 5.726562 -39.765625 4.050781 -40.5 1.53125 -40.5 L -0.265625 -40.5 L -0.265625 -42.296875 L 7.828125 -42.296875 C 10.046875 -42.296875 11.707031 -42.007812 12.8125 -41.4375 C 13.925781 -40.875 14.722656 -39.84375 15.203125 -38.34375 C 15.691406 -36.84375 15.9375 -34.5625 15.9375 -31.5 L 15.9375 0 L 7.828125 0 Z M 7.828125 -31.5 "/></g></g></g><g fill="#000000" fill-opacity="1"><g transform="translate(395.546043, 104.453647)"><g><path d="M 23.84375 0.90625 C 19.769531 0.90625 16.234375 -0.0664062 13.234375 -2.015625 C 10.234375 -3.972656 7.953125 -6.628906 6.390625 -9.984375 C 4.828125 -13.347656 4.046875 -17.070312 4.046875 -21.15625 C 4.046875 -25.226562 4.828125 -28.941406 6.390625 -32.296875 C 7.953125 -35.660156 10.234375 -38.316406 13.234375 -40.265625 C 16.234375 -42.222656 19.769531 -43.203125 23.84375 -43.203125 C 27.925781 -43.203125 31.46875 -42.222656 34.46875 -40.265625 C 37.46875 -38.316406 39.75 -35.660156 41.3125 -32.296875 C 42.875 -28.941406 43.65625 -25.226562 43.65625 -21.15625 C 43.65625 -17.070312 42.875 -13.347656 41.3125 -9.984375 C 39.75 -6.628906 37.46875 -3.972656 34.46875 -2.015625 C 31.46875 -0.0664062 27.925781 0.90625 23.84375 0.90625 Z M 23.84375 -2.703125 C 26.070312 -2.703125 28.039062 -3.507812 29.75 -5.125 C 31.457031 -6.75 32.773438 -8.96875 33.703125 -11.78125 C 34.628906 -14.601562 35.09375 -17.726562 35.09375 -21.15625 C 35.09375 -24.570312 34.628906 -27.6875 33.703125 -30.5 C 32.773438 -33.320312 31.457031 -35.539062 29.75 -37.15625 C 28.039062 -38.78125 26.070312 -39.59375 23.84375 -39.59375 C 21.625 -39.59375 19.660156 -38.78125 17.953125 -37.15625 C 16.242188 -35.539062 14.921875 -33.320312 13.984375 -30.5 C 13.054688 -27.6875 12.59375 -24.570312 12.59375 -21.15625 C 12.59375 -17.726562 13.054688 -14.601562 13.984375 -11.78125 C 14.921875 -8.96875 16.242188 -6.75 17.953125 -5.125 C 19.660156 -3.507812 21.625 -2.703125 23.84375 -2.703125 Z M 23.84375 -2.703125 "/></g></g></g><g fill="#000000" fill-opacity="1"><g transform="translate(443.245999, 104.453647)"><g><path d="M 7.828125 -31.5 C 7.828125 -34.5625 7.40625 -36.828125 6.5625 -38.296875 C 5.726562 -39.765625 4.050781 -40.5 1.53125 -40.5 L -0.265625 -40.5 L -0.265625 -42.296875 L 7.828125 -42.296875 C 10.046875 -42.296875 11.738281 -41.992188 12.90625 -41.390625 C 14.082031 -40.796875 14.941406 -39.898438 15.484375 -38.703125 L 15.9375 -38.703125 C 17.1875 -39.960938 18.816406 -41.023438 20.828125 -41.890625 C 22.835938 -42.765625 25.101562 -43.203125 27.625 -43.203125 C 32.125 -43.203125 35.800781 -42 38.65625 -39.59375 C 41.507812 -37.195312 42.9375 -33 42.9375 -27 L 42.9375 0 L 34.828125 0 L 34.828125 -27 C 34.828125 -31.195312 33.878906 -34.269531 31.984375 -36.21875 C 30.097656 -38.175781 27.75 -39.15625 24.9375 -39.15625 C 21.75 -39.15625 18.75 -37.5625 15.9375 -34.375 L 15.9375 0 L 7.828125 0 Z M 7.828125 -31.5 "/></g></g></g><g fill="#000000" fill-opacity="1"><g transform="translate(492.205949, 104.453647)"><g><path d="M 16.5625 0.90625 C 14.644531 0.90625 12.691406 0.5 10.703125 -0.3125 C 8.722656 -1.125 7.03125 -2.457031 5.625 -4.3125 C 4.21875 -6.175781 3.515625 -8.640625 3.515625 -11.703125 C 3.515625 -16.265625 5.628906 -19.503906 9.859375 -21.421875 C 14.085938 -23.335938 19.617188 -24.296875 26.453125 -24.296875 L 29.15625 -24.296875 C 29.15625 -30.179688 28.34375 -34.203125 26.71875 -36.359375 C 25.101562 -38.515625 22.765625 -39.59375 19.703125 -39.59375 C 17.003906 -39.59375 14.84375 -39.023438 13.21875 -37.890625 C 11.601562 -36.753906 10.46875 -34.773438 9.8125 -31.953125 L 5.765625 -31.953125 C 5.765625 -33.992188 5.882812 -35.597656 6.125 -36.765625 C 6.363281 -37.929688 6.992188 -39.023438 8.015625 -40.046875 C 9.085938 -41.128906 10.867188 -41.925781 13.359375 -42.4375 C 15.847656 -42.945312 18.566406 -43.203125 21.515625 -43.203125 C 26.367188 -43.203125 30.207031 -41.894531 33.03125 -39.28125 C 35.851562 -36.675781 37.265625 -31.679688 37.265625 -24.296875 L 37.265625 0 L 32.765625 0 L 29.609375 -4.046875 L 29.15625 -4.046875 C 28.082031 -2.671875 26.492188 -1.5 24.390625 -0.53125 C 22.285156 0.425781 19.675781 0.90625 16.5625 0.90625 Z M 20.609375 -3.15625 C 22.585938 -3.15625 24.238281 -3.632812 25.5625 -4.59375 C 26.882812 -5.550781 28.082031 -6.867188 29.15625 -8.546875 L 29.15625 -20.703125 L 26.453125 -20.703125 C 22.015625 -20.703125 18.503906 -19.875 15.921875 -18.21875 C 13.347656 -16.570312 12.0625 -14.398438 12.0625 -11.703125 C 12.0625 -8.941406 12.882812 -6.828125 14.53125 -5.359375 C 16.1875 -3.890625 18.210938 -3.15625 20.609375 -3.15625 Z M 20.609375 -3.15625 "/></g></g></g><g fill="#000000" fill-opacity="1"><g transform="translate(535.495902, 104.453647)"><g><path d="M 18.984375 0.90625 C 15.628906 0.90625 12.988281 -0.0507812 11.0625 -1.96875 C 9.144531 -3.894531 8.1875 -6.835938 8.1875 -10.796875 L 8.1875 -38.703125 L 1.890625 -38.703125 L 1.890625 -42.296875 L 8.1875 -42.296875 L 8.1875 -50.40625 L 12.6875 -55.796875 L 16.296875 -55.796875 L 16.296875 -42.296875 L 27.09375 -42.296875 L 27.09375 -38.703125 L 16.296875 -38.703125 L 16.296875 -10.796875 C 16.296875 -5.398438 18.394531 -2.703125 22.59375 -2.703125 C 24.03125 -2.703125 25.242188 -2.847656 26.234375 -3.140625 C 27.222656 -3.441406 28.257812 -3.894531 29.34375 -4.5 L 30.234375 -2.703125 C 28.859375 -1.679688 27.328125 -0.820312 25.640625 -0.125 C 23.960938 0.5625 21.742188 0.90625 18.984375 0.90625 Z M 18.984375 0.90625 "/></g></g></g><g fill="#000000" fill-opacity="1"><g transform="translate(565.915875, 104.453647)"><g><path d="M 22.953125 0.90625 C 18.867188 0.90625 15.414062 -0.0664062 12.59375 -2.015625 C 9.78125 -3.972656 7.648438 -6.613281 6.203125 -9.9375 C 4.765625 -13.269531 4.046875 -17.007812 4.046875 -21.15625 C 4.046875 -25.226562 4.765625 -28.941406 6.203125 -32.296875 C 7.648438 -35.660156 9.738281 -38.316406 12.46875 -40.265625 C 15.195312 -42.222656 18.390625 -43.203125 22.046875 -43.203125 C 28.109375 -43.203125 32.625 -41.503906 35.59375 -38.109375 C 38.5625 -34.722656 40.046875 -29.820312 40.046875 -23.40625 L 39.875 -19.796875 L 12.59375 -19.796875 C 12.59375 -14.753906 13.671875 -10.644531 15.828125 -7.46875 C 17.992188 -4.289062 20.96875 -2.703125 24.75 -2.703125 C 27.570312 -2.703125 29.957031 -3.300781 31.90625 -4.5 C 33.851562 -5.695312 35.664062 -7.5 37.34375 -9.90625 L 39.15625 -8.546875 C 37.175781 -5.242188 34.863281 -2.84375 32.21875 -1.34375 C 29.582031 0.15625 26.492188 0.90625 22.953125 0.90625 Z M 31.5 -23.40625 C 31.5 -28.675781 30.71875 -32.691406 29.15625 -35.453125 C 27.59375 -38.210938 25.222656 -39.59375 22.046875 -39.59375 C 20.242188 -39.59375 18.625 -38.890625 17.1875 -37.484375 C 15.75 -36.078125 14.625 -34.140625 13.8125 -31.671875 C 13 -29.210938 12.59375 -26.457031 12.59375 -23.40625 Z M 31.5 -23.40625 "/></g></g></g></svg>