<svg xmlns="http://www.w3.org/2000/svg" xmlns:xlink="http://www.w3.org/1999/xlink" width="1080" zoomAndPan="magnify" viewBox="0 0 810 149.999998" height="200" preserveAspectRatio="xMidYMid meet" version="1.0"><defs><g/></defs><g fill="#000000" fill-opacity="1"><g transform="translate(4.273413, 104.453647)"><g><path d="M 55.984375 0.453125 C 53.097656 0.453125 50.242188 -0.335938 47.421875 -1.921875 C 44.609375 -3.515625 42.363281 -6.625 40.6875 -11.25 L 38.4375 -17.09375 L 13.234375 -17.09375 L 6.03125 0 L 1.984375 0 L 27.1875 -59.40625 L 29.875 -59.40625 L 49.6875 -11.25 C 51.1875 -7.769531 52.59375 -5.382812 53.90625 -4.09375 C 55.226562 -2.800781 57.117188 -2.035156 59.578125 -1.796875 L 59.578125 0 C 58.492188 0.300781 57.296875 0.453125 55.984375 0.453125 Z M 36.625 -20.703125 L 25.828125 -46.796875 L 14.578125 -20.703125 Z M 36.625 -20.703125 "/></g></g></g><g fill="#000000" fill-opacity="1"><g transform="translate(61.423351, 104.453647)"><g><path d="M 20.4375 0.90625 C 15.207031 0.90625 11.195312 -1.160156 8.40625 -5.296875 C 5.625 -9.441406 4.234375 -14.726562 4.234375 -21.15625 C 4.234375 -27.570312 5.6875 -32.847656 8.59375 -36.984375 C 11.5 -41.128906 15.742188 -43.203125 21.328125 -43.203125 C 23.609375 -43.203125 25.617188 -42.960938 27.359375 -42.484375 C 29.097656 -42.003906 30.835938 -41.34375 32.578125 -40.5 L 32.578125 -48.59375 C 32.578125 -51.65625 32.15625 -53.921875 31.3125 -55.390625 C 30.476562 -56.859375 28.800781 -57.59375 26.28125 -57.59375 L 24.484375 -57.59375 L 24.484375 -59.40625 L 32.578125 -59.40625 C 34.796875 -59.40625 36.457031 -59.117188 37.5625 -58.546875 C 38.675781 -57.972656 39.472656 -56.9375 39.953125 -55.4375 C 40.441406 -53.9375 40.6875 -51.65625 40.6875 -48.59375 L 40.6875 0 L 36.1875 0 L 33.03125 -4.046875 L 32.578125 -4.046875 C 31.253906 -2.546875 29.707031 -1.34375 27.9375 -0.4375 C 26.175781 0.457031 23.675781 0.90625 20.4375 0.90625 Z M 23.125 -2.703125 C 25.582031 -2.703125 27.441406 -3.148438 28.703125 -4.046875 C 29.960938 -4.953125 31.253906 -6.300781 32.578125 -8.09375 L 32.578125 -36.90625 C 30.773438 -37.738281 29.210938 -38.394531 27.890625 -38.875 C 26.578125 -39.351562 25.289062 -39.59375 24.03125 -39.59375 C 20.1875 -39.59375 17.347656 -37.910156 15.515625 -34.546875 C 13.691406 -31.191406 12.78125 -26.726562 12.78125 -21.15625 C 12.78125 -15.632812 13.648438 -11.175781 15.390625 -7.78125 C 17.128906 -4.394531 19.707031 -2.703125 23.125 -2.703125 Z M 23.125 -2.703125 "/></g></g></g><g fill="#000000" fill-opacity="1"><g transform="translate(108.583306, 104.453647)"><g><path d="M 22.953125 0.90625 C 18.867188 0.90625 15.414062 -0.0664062 12.59375 -2.015625 C 9.78125 -3.972656 7.648438 -6.613281 6.203125 -9.9375 C 4.765625 -13.269531 4.046875 -17.007812 4.046875 -21.15625 C 4.046875 -25.226562 4.765625 -28.941406 6.203125 -32.296875 C 7.648438 -35.660156 9.738281 -38.316406 12.46875 -40.265625 C 15.195312 -42.222656 18.390625 -43.203125 22.046875 -43.203125 C 28.109375 -43.203125 32.625 -41.503906 35.59375 -38.109375 C 38.5625 -34.722656 40.046875 -29.820312 40.046875 -23.40625 L 39.875 -19.796875 L 12.59375 -19.796875 C 12.59375 -14.753906 13.671875 -10.644531 15.828125 -7.46875 C 17.992188 -4.289062 20.96875 -2.703125 24.75 -2.703125 C 27.570312 -2.703125 29.957031 -3.300781 31.90625 -4.5 C 33.851562 -5.695312 35.664062 -7.5 37.34375 -9.90625 L 39.15625 -8.546875 C 37.175781 -5.242188 34.863281 -2.84375 32.21875 -1.34375 C 29.582031 0.15625 26.492188 0.90625 22.953125 0.90625 Z M 31.5 -23.40625 C 31.5 -28.675781 30.71875 -32.691406 29.15625 -35.453125 C 27.59375 -38.210938 25.222656 -39.59375 22.046875 -39.59375 C 20.242188 -39.59375 18.625 -38.890625 17.1875 -37.484375 C 15.75 -36.078125 14.625 -34.140625 13.8125 -31.671875 C 13 -29.210938 12.59375 -26.457031 12.59375 -23.40625 Z M 31.5 -23.40625 "/></g></g></g><g fill="#000000" fill-opacity="1"><g transform="translate(152.503267, 104.453647)"><g><path d="M 6.84375 -48.59375 C 6.84375 -51.65625 6.421875 -53.921875 5.578125 -55.390625 C 4.734375 -56.859375 3.054688 -57.59375 0.546875 -57.59375 L -1.265625 -57.59375 L -1.265625 -59.40625 L 6.84375 -59.40625 C 9.0625 -59.40625 10.722656 -59.117188 11.828125 -58.546875 C 12.941406 -57.972656 13.738281 -56.9375 14.21875 -55.4375 C 14.695312 -53.9375 14.9375 -51.65625 14.9375 -48.59375 L 14.9375 0 L 6.84375 0 Z M 6.84375 -48.59375 "/></g></g></g><g fill="#000000" fill-opacity="1"><g transform="translate(174.28325, 104.453647)"><g><path d="M 16.5625 0.90625 C 14.644531 0.90625 12.691406 0.5 10.703125 -0.3125 C 8.722656 -1.125 7.03125 -2.457031 5.625 -4.3125 C 4.21875 -6.175781 3.515625 -8.640625 3.515625 -11.703125 C 3.515625 -16.265625 5.628906 -19.503906 9.859375 -21.421875 C 14.085938 -23.335938 19.617188 -24.296875 26.453125 -24.296875 L 29.15625 -24.296875 C 29.15625 -30.179688 28.34375 -34.203125 26.71875 -36.359375 C 25.101562 -38.515625 22.765625 -39.59375 19.703125 -39.59375 C 17.003906 -39.59375 14.84375 -39.023438 13.21875 -37.890625 C 11.601562 -36.753906 10.46875 -34.773438 9.8125 -31.953125 L 5.765625 -31.953125 C 5.765625 -33.992188 5.882812 -35.597656 6.125 -36.765625 C 6.363281 -37.929688 6.992188 -39.023438 8.015625 -40.046875 C 9.085938 -41.128906 10.867188 -41.925781 13.359375 -42.4375 C 15.847656 -42.945312 18.566406 -43.203125 21.515625 -43.203125 C 26.367188 -43.203125 30.207031 -41.894531 33.03125 -39.28125 C 35.851562 -36.675781 37.265625 -31.679688 37.265625 -24.296875 L 37.265625 0 L 32.765625 0 L 29.609375 -4.046875 L 29.15625 -4.046875 C 28.082031 -2.671875 26.492188 -1.5 24.390625 -0.53125 C 22.285156 0.425781 19.675781 0.90625 16.5625 0.90625 Z M 20.609375 -3.15625 C 22.585938 -3.15625 24.238281 -3.632812 25.5625 -4.59375 C 26.882812 -5.550781 28.082031 -6.867188 29.15625 -8.546875 L 29.15625 -20.703125 L 26.453125 -20.703125 C 22.015625 -20.703125 18.503906 -19.875 15.921875 -18.21875 C 13.347656 -16.570312 12.0625 -14.398438 12.0625 -11.703125 C 12.0625 -8.941406 12.882812 -6.828125 14.53125 -5.359375 C 16.1875 -3.890625 18.210938 -3.15625 20.609375 -3.15625 Z M 20.609375 -3.15625 "/></g></g></g><g fill="#000000" fill-opacity="1"><g transform="translate(217.573191, 104.453647)"><g><path d="M 11.25 -47.703125 C 9.875 -47.703125 8.6875 -48.269531 7.6875 -49.40625 C 6.695312 -50.550781 6.203125 -51.898438 6.203125 -53.453125 C 6.203125 -54.710938 6.578125 -55.703125 7.328125 -56.421875 C 8.078125 -57.148438 9.082031 -57.515625 10.34375 -57.515625 C 11.726562 -57.515625 12.914062 -56.941406 13.90625 -55.796875 C 14.894531 -54.660156 15.390625 -53.3125 15.390625 -51.75 C 15.390625 -50.488281 15.015625 -49.5 14.265625 -48.78125 C 13.515625 -48.0625 12.507812 -47.703125 11.25 -47.703125 Z M 7.828125 -31.5 C 7.828125 -34.5625 7.40625 -36.828125 6.5625 -38.296875 C 5.726562 -39.765625 4.050781 -40.5 1.53125 -40.5 L -0.265625 -40.5 L -0.265625 -42.296875 L 7.828125 -42.296875 C 10.046875 -42.296875 11.707031 -42.007812 12.8125 -41.4375 C 13.925781 -40.875 14.722656 -39.84375 15.203125 -38.34375 C 15.691406 -36.84375 15.9375 -34.5625 15.9375 -31.5 L 15.9375 0 L 7.828125 0 Z M 7.828125 -31.5 "/></g></g></g><g fill="#000000" fill-opacity="1"><g transform="translate(239.713158, 104.453647)"><g><path d="M 20.4375 0.90625 C 15.207031 0.90625 11.195312 -1.160156 8.40625 -5.296875 C 5.625 -9.441406 4.234375 -14.726562 4.234375 -21.15625 C 4.234375 -27.570312 5.6875 -32.847656 8.59375 -36.984375 C 11.5 -41.128906 15.742188 -43.203125 21.328125 -43.203125 C 23.609375 -43.203125 25.617188 -42.960938 27.359375 -42.484375 C 29.097656 -42.003906 30.835938 -41.34375 32.578125 -40.5 L 32.578125 -48.59375 C 32.578125 -51.65625 32.15625 -53.921875 31.3125 -55.390625 C 30.476562 -56.859375 28.800781 -57.59375 26.28125 -57.59375 L 24.484375 -57.59375 L 24.484375 -59.40625 L 32.578125 -59.40625 C 34.796875 -59.40625 36.457031 -59.117188 37.5625 -58.546875 C 38.675781 -57.972656 39.472656 -56.9375 39.953125 -55.4375 C 40.441406 -53.9375 40.6875 -51.65625 40.6875 -48.59375 L 40.6875 0 L 36.1875 0 L 33.03125 -4.046875 L 32.578125 -4.046875 C 31.253906 -2.546875 29.707031 -1.34375 27.9375 -0.4375 C 26.175781 0.457031 23.675781 0.90625 20.4375 0.90625 Z M 23.125 -2.703125 C 25.582031 -2.703125 27.441406 -3.148438 28.703125 -4.046875 C 29.960938 -4.953125 31.253906 -6.300781 32.578125 -8.09375 L 32.578125 -36.90625 C 30.773438 -37.738281 29.210938 -38.394531 27.890625 -38.875 C 26.578125 -39.351562 25.289062 -39.59375 24.03125 -39.59375 C 20.1875 -39.59375 17.347656 -37.910156 15.515625 -34.546875 C 13.691406 -31.191406 12.78125 -26.726562 12.78125 -21.15625 C 12.78125 -15.632812 13.648438 -11.175781 15.390625 -7.78125 C 17.128906 -4.394531 19.707031 -2.703125 23.125 -2.703125 Z M 23.125 -2.703125 "/></g></g></g><g fill="#000000" fill-opacity="1"><g transform="translate(286.873113, 104.453647)"><g><path d="M 22.953125 0.90625 C 18.867188 0.90625 15.414062 -0.0664062 12.59375 -2.015625 C 9.78125 -3.972656 7.648438 -6.613281 6.203125 -9.9375 C 4.765625 -13.269531 4.046875 -17.007812 4.046875 -21.15625 C 4.046875 -25.226562 4.765625 -28.941406 6.203125 -32.296875 C 7.648438 -35.660156 9.738281 -38.316406 12.46875 -40.265625 C 15.195312 -42.222656 18.390625 -43.203125 22.046875 -43.203125 C 28.109375 -43.203125 32.625 -41.503906 35.59375 -38.109375 C 38.5625 -34.722656 40.046875 -29.820312 40.046875 -23.40625 L 39.875 -19.796875 L 12.59375 -19.796875 C 12.59375 -14.753906 13.671875 -10.644531 15.828125 -7.46875 C 17.992188 -4.289062 20.96875 -2.703125 24.75 -2.703125 C 27.570312 -2.703125 29.957031 -3.300781 31.90625 -4.5 C 33.851562 -5.695312 35.664062 -7.5 37.34375 -9.90625 L 39.15625 -8.546875 C 37.175781 -5.242188 34.863281 -2.84375 32.21875 -1.34375 C 29.582031 0.15625 26.492188 0.90625 22.953125 0.90625 Z M 31.5 -23.40625 C 31.5 -28.675781 30.71875 -32.691406 29.15625 -35.453125 C 27.59375 -38.210938 25.222656 -39.59375 22.046875 -39.59375 C 20.242188 -39.59375 18.625 -38.890625 17.1875 -37.484375 C 15.75 -36.078125 14.625 -34.140625 13.8125 -31.671875 C 13 -29.210938 12.59375 -26.457031 12.59375 -23.40625 Z M 31.5 -23.40625 "/></g></g></g><g fill="#000000" fill-opacity="1"><g transform="translate(330.793064, 104.453647)"><g/></g></g><g fill="#000000" fill-opacity="1"><g transform="translate(353.293039, 104.453647)"><g><path d="M 31.859375 0.90625 C 26.097656 0.90625 21.535156 -0.0664062 18.171875 -2.015625 C 14.816406 -3.972656 12.429688 -6.867188 11.015625 -10.703125 C 9.609375 -14.546875 8.90625 -19.53125 8.90625 -25.65625 L 8.90625 -48.59375 C 8.90625 -51.65625 8.484375 -53.921875 7.640625 -55.390625 C 6.804688 -56.859375 5.128906 -57.59375 2.609375 -57.59375 L 0.8125 -57.59375 L 0.8125 -59.40625 L 8.90625 -59.40625 C 11.125 -59.40625 12.785156 -59.117188 13.890625 -58.546875 C 15.003906 -57.972656 15.800781 -56.9375 16.28125 -55.4375 C 16.769531 -53.9375 17.015625 -51.65625 17.015625 -48.59375 L 17.015625 -22.953125 C 17.015625 -16.285156 18.242188 -11.242188 20.703125 -7.828125 C 23.160156 -4.410156 27.238281 -2.703125 32.9375 -2.703125 C 37.5 -2.703125 41.113281 -3.507812 43.78125 -5.125 C 46.457031 -6.75 48.363281 -9.207031 49.5 -12.5 C 50.632812 -15.800781 51.203125 -20.1875 51.203125 -25.65625 L 51.203125 -59.40625 L 54.8125 -59.40625 L 54.8125 -25.65625 C 54.8125 -19.414062 54.148438 -14.390625 52.828125 -10.578125 C 51.503906 -6.765625 49.175781 -3.894531 45.84375 -1.96875 C 42.519531 -0.0507812 37.859375 0.90625 31.859375 0.90625 Z M 31.859375 0.90625 "/></g></g></g><g fill="#000000" fill-opacity="1"><g transform="translate(415.122969, 104.453647)"><g><path d="M 7.828125 -31.5 C 7.828125 -34.5625 7.40625 -36.828125 6.5625 -38.296875 C 5.726562 -39.765625 4.050781 -40.5 1.53125 -40.5 L -0.265625 -40.5 L -0.265625 -42.296875 L 7.828125 -42.296875 C 10.046875 -42.296875 11.738281 -41.992188 12.90625 -41.390625 C 14.082031 -40.796875 14.941406 -39.898438 15.484375 -38.703125 L 15.9375 -38.703125 C 17.1875 -39.960938 18.816406 -41.023438 20.828125 -41.890625 C 22.835938 -42.765625 25.101562 -43.203125 27.625 -43.203125 C 32.125 -43.203125 35.800781 -42 38.65625 -39.59375 C 41.507812 -37.195312 42.9375 -33 42.9375 -27 L 42.9375 0 L 34.828125 0 L 34.828125 -27 C 34.828125 -31.195312 33.878906 -34.269531 31.984375 -36.21875 C 30.097656 -38.175781 27.75 -39.15625 24.9375 -39.15625 C 21.75 -39.15625 18.75 -37.5625 15.9375 -34.375 L 15.9375 0 L 7.828125 0 Z M 7.828125 -31.5 "/></g></g></g><g fill="#000000" fill-opacity="1"><g transform="translate(464.082896, 104.453647)"><g><path d="M 11.25 -47.703125 C 9.875 -47.703125 8.6875 -48.269531 7.6875 -49.40625 C 6.695312 -50.550781 6.203125 -51.898438 6.203125 -53.453125 C 6.203125 -54.710938 6.578125 -55.703125 7.328125 -56.421875 C 8.078125 -57.148438 9.082031 -57.515625 10.34375 -57.515625 C 11.726562 -57.515625 12.914062 -56.941406 13.90625 -55.796875 C 14.894531 -54.660156 15.390625 -53.3125 15.390625 -51.75 C 15.390625 -50.488281 15.015625 -49.5 14.265625 -48.78125 C 13.515625 -48.0625 12.507812 -47.703125 11.25 -47.703125 Z M 7.828125 -31.5 C 7.828125 -34.5625 7.40625 -36.828125 6.5625 -38.296875 C 5.726562 -39.765625 4.050781 -40.5 1.53125 -40.5 L -0.265625 -40.5 L -0.265625 -42.296875 L 7.828125 -42.296875 C 10.046875 -42.296875 11.707031 -42.007812 12.8125 -41.4375 C 13.925781 -40.875 14.722656 -39.84375 15.203125 -38.34375 C 15.691406 -36.84375 15.9375 -34.5625 15.9375 -31.5 L 15.9375 0 L 7.828125 0 Z M 7.828125 -31.5 "/></g></g></g><g fill="#000000" fill-opacity="1"><g transform="translate(486.222863, 104.453647)"><g/></g></g><g fill="#000000" fill-opacity="1"><g transform="translate(508.722816, 104.453647)"><g><path d="M 25.375 1.53125 C 22.082031 1.53125 18.84375 1.078125 15.65625 0.171875 C 12.476562 -0.722656 9.882812 -2.007812 7.875 -3.6875 C 5.863281 -5.363281 4.859375 -7.285156 4.859375 -9.453125 L 4.859375 -19.078125 L 6.484375 -19.078125 C 7.503906 -13.078125 9.484375 -8.738281 12.421875 -6.0625 C 15.359375 -3.394531 19.40625 -2.0625 24.5625 -2.0625 C 27.8125 -2.0625 30.585938 -2.875 32.890625 -4.5 C 35.203125 -6.125 36.359375 -8.375 36.359375 -11.25 C 36.359375 -13.769531 35.578125 -15.957031 34.015625 -17.8125 C 32.460938 -19.675781 29.941406 -21.628906 26.453125 -23.671875 L 15.390625 -30.234375 C 11.546875 -32.515625 8.828125 -34.828125 7.234375 -37.171875 C 5.648438 -39.515625 4.859375 -42.363281 4.859375 -45.71875 C 4.859375 -50.34375 6.460938 -54.046875 9.671875 -56.828125 C 12.878906 -59.617188 17.09375 -61.015625 22.3125 -61.015625 C 25.375 -61.015625 28.40625 -60.578125 31.40625 -59.703125 C 34.40625 -58.835938 36.878906 -57.578125 38.828125 -55.921875 C 40.785156 -54.273438 41.765625 -52.375 41.765625 -50.21875 L 41.765625 -40.59375 L 40.140625 -40.59375 C 39.117188 -46.59375 37.179688 -50.894531 34.328125 -53.5 C 31.484375 -56.113281 27.476562 -57.421875 22.3125 -57.421875 C 19.5625 -57.421875 17.132812 -56.578125 15.03125 -54.890625 C 12.925781 -53.210938 11.875 -51.023438 11.875 -48.328125 C 11.875 -45.867188 12.640625 -43.828125 14.171875 -42.203125 C 15.703125 -40.585938 18.269531 -38.703125 21.875 -36.546875 L 32.9375 -29.96875 C 37.019531 -27.507812 39.898438 -25.226562 41.578125 -23.125 C 43.253906 -21.03125 44.09375 -18.363281 44.09375 -15.125 C 44.09375 -10.082031 42.410156 -6.046875 39.046875 -3.015625 C 35.691406 0.015625 31.132812 1.53125 25.375 1.53125 Z M 25.375 1.53125 "/></g></g></g><g fill="#000000" fill-opacity="1"><g transform="translate(556.692784, 104.453647)"><g><path d="M 18.984375 0.90625 C 15.628906 0.90625 12.988281 -0.0507812 11.0625 -1.96875 C 9.144531 -3.894531 8.1875 -6.835938 8.1875 -10.796875 L 8.1875 -38.703125 L 1.890625 -38.703125 L 1.890625 -42.296875 L 8.1875 -42.296875 L 8.1875 -50.40625 L 12.6875 -55.796875 L 16.296875 -55.796875 L 16.296875 -42.296875 L 27.09375 -42.296875 L 27.09375 -38.703125 L 16.296875 -38.703125 L 16.296875 -10.796875 C 16.296875 -5.398438 18.394531 -2.703125 22.59375 -2.703125 C 24.03125 -2.703125 25.242188 -2.847656 26.234375 -3.140625 C 27.222656 -3.441406 28.257812 -3.894531 29.34375 -4.5 L 30.234375 -2.703125 C 28.859375 -1.679688 27.328125 -0.820312 25.640625 -0.125 C 23.960938 0.5625 21.742188 0.90625 18.984375 0.90625 Z M 18.984375 0.90625 "/></g></g></g><g fill="#000000" fill-opacity="1"><g transform="translate(587.112735, 104.453647)"><g><path d="M 21.875 0.90625 C 17.375 0.90625 13.695312 -0.289062 10.84375 -2.6875 C 7.988281 -5.09375 6.5625 -9.296875 6.5625 -15.296875 L 6.5625 -31.5 C 6.5625 -34.5625 6.140625 -36.828125 5.296875 -38.296875 C 4.460938 -39.765625 2.785156 -40.5 0.265625 -40.5 L -0.625 -40.5 L -0.625 -42.296875 L 6.5625 -42.296875 C 8.789062 -42.296875 10.457031 -42.007812 11.5625 -41.4375 C 12.675781 -40.875 13.472656 -39.84375 13.953125 -38.34375 C 14.429688 -36.84375 14.671875 -34.5625 14.671875 -31.5 L 14.671875 -15.296875 C 14.671875 -11.097656 15.613281 -8.023438 17.5 -6.078125 C 19.394531 -4.128906 21.75 -3.15625 24.5625 -3.15625 C 27.75 -3.15625 30.75 -4.742188 33.5625 -7.921875 L 33.5625 -42.296875 L 41.671875 -42.296875 L 41.671875 0 L 37.171875 0 L 34.015625 -3.59375 L 33.5625 -3.59375 C 32.3125 -2.332031 30.679688 -1.265625 28.671875 -0.390625 C 26.660156 0.472656 24.394531 0.90625 21.875 0.90625 Z M 21.875 0.90625 "/></g></g></g><g fill="#000000" fill-opacity="1"><g transform="translate(635.262696, 104.453647)"><g><path d="M 20.4375 0.90625 C 15.207031 0.90625 11.195312 -1.160156 8.40625 -5.296875 C 5.625 -9.441406 4.234375 -14.726562 4.234375 -21.15625 C 4.234375 -27.570312 5.6875 -32.847656 8.59375 -36.984375 C 11.5 -41.128906 15.742188 -43.203125 21.328125 -43.203125 C 23.609375 -43.203125 25.617188 -42.960938 27.359375 -42.484375 C 29.097656 -42.003906 30.835938 -41.34375 32.578125 -40.5 L 32.578125 -48.59375 C 32.578125 -51.65625 32.15625 -53.921875 31.3125 -55.390625 C 30.476562 -56.859375 28.800781 -57.59375 26.28125 -57.59375 L 24.484375 -57.59375 L 24.484375 -59.40625 L 32.578125 -59.40625 C 34.796875 -59.40625 36.457031 -59.117188 37.5625 -58.546875 C 38.675781 -57.972656 39.472656 -56.9375 39.953125 -55.4375 C 40.441406 -53.9375 40.6875 -51.65625 40.6875 -48.59375 L 40.6875 0 L 36.1875 0 L 33.03125 -4.046875 L 32.578125 -4.046875 C 31.253906 -2.546875 29.707031 -1.34375 27.9375 -0.4375 C 26.175781 0.457031 23.675781 0.90625 20.4375 0.90625 Z M 23.125 -2.703125 C 25.582031 -2.703125 27.441406 -3.148438 28.703125 -4.046875 C 29.960938 -4.953125 31.253906 -6.300781 32.578125 -8.09375 L 32.578125 -36.90625 C 30.773438 -37.738281 29.210938 -38.394531 27.890625 -38.875 C 26.578125 -39.351562 25.289062 -39.59375 24.03125 -39.59375 C 20.1875 -39.59375 17.347656 -37.910156 15.515625 -34.546875 C 13.691406 -31.191406 12.78125 -26.726562 12.78125 -21.15625 C 12.78125 -15.632812 13.648438 -11.175781 15.390625 -7.78125 C 17.128906 -4.394531 19.707031 -2.703125 23.125 -2.703125 Z M 23.125 -2.703125 "/></g></g></g><g fill="#000000" fill-opacity="1"><g transform="translate(682.422651, 104.453647)"><g><path d="M 22.953125 0.90625 C 18.867188 0.90625 15.414062 -0.0664062 12.59375 -2.015625 C 9.78125 -3.972656 7.648438 -6.613281 6.203125 -9.9375 C 4.765625 -13.269531 4.046875 -17.007812 4.046875 -21.15625 C 4.046875 -25.226562 4.765625 -28.941406 6.203125 -32.296875 C 7.648438 -35.660156 9.738281 -38.316406 12.46875 -40.265625 C 15.195312 -42.222656 18.390625 -43.203125 22.046875 -43.203125 C 28.109375 -43.203125 32.625 -41.503906 35.59375 -38.109375 C 38.5625 -34.722656 40.046875 -29.820312 40.046875 -23.40625 L 39.875 -19.796875 L 12.59375 -19.796875 C 12.59375 -14.753906 13.671875 -10.644531 15.828125 -7.46875 C 17.992188 -4.289062 20.96875 -2.703125 24.75 -2.703125 C 27.570312 -2.703125 29.957031 -3.300781 31.90625 -4.5 C 33.851562 -5.695312 35.664062 -7.5 37.34375 -9.90625 L 39.15625 -8.546875 C 37.175781 -5.242188 34.863281 -2.84375 32.21875 -1.34375 C 29.582031 0.15625 26.492188 0.90625 22.953125 0.90625 Z M 31.5 -23.40625 C 31.5 -28.675781 30.71875 -32.691406 29.15625 -35.453125 C 27.59375 -38.210938 25.222656 -39.59375 22.046875 -39.59375 C 20.242188 -39.59375 18.625 -38.890625 17.1875 -37.484375 C 15.75 -36.078125 14.625 -34.140625 13.8125 -31.671875 C 13 -29.210938 12.59375 -26.457031 12.59375 -23.40625 Z M 31.5 -23.40625 "/></g></g></g><g fill="#000000" fill-opacity="1"><g transform="translate(726.342601, 104.453647)"><g><path d="M 7.828125 -31.5 C 7.828125 -34.5625 7.40625 -36.828125 6.5625 -38.296875 C 5.726562 -39.765625 4.050781 -40.5 1.53125 -40.5 L -0.265625 -40.5 L -0.265625 -42.296875 L 7.828125 -42.296875 C 10.046875 -42.296875 11.738281 -41.992188 12.90625 -41.390625 C 14.082031 -40.796875 14.941406 -39.898438 15.484375 -38.703125 L 15.9375 -38.703125 C 17.1875 -39.960938 18.816406 -41.023438 20.828125 -41.890625 C 22.835938 -42.765625 25.101562 -43.203125 27.625 -43.203125 C 32.125 -43.203125 35.800781 -42 38.65625 -39.59375 C 41.507812 -37.195312 42.9375 -33 42.9375 -27 L 42.9375 0 L 34.828125 0 L 34.828125 -27 C 34.828125 -31.195312 33.878906 -34.269531 31.984375 -36.21875 C 30.097656 -38.175781 27.75 -39.15625 24.9375 -39.15625 C 21.75 -39.15625 18.75 -37.5625 15.9375 -34.375 L 15.9375 0 L 7.828125 0 Z M 7.828125 -31.5 "/></g></g></g><g fill="#000000" fill-opacity="1"><g transform="translate(775.302574, 104.453647)"><g><path d="M 18.984375 0.90625 C 15.628906 0.90625 12.988281 -0.0507812 11.0625 -1.96875 C 9.144531 -3.894531 8.1875 -6.835938 8.1875 -10.796875 L 8.1875 -38.703125 L 1.890625 -38.703125 L 1.890625 -42.296875 L 8.1875 -42.296875 L 8.1875 -50.40625 L 12.6875 -55.796875 L 16.296875 -55.796875 L 16.296875 -42.296875 L 27.09375 -42.296875 L 27.09375 -38.703125 L 16.296875 -38.703125 L 16.296875 -10.796875 C 16.296875 -5.398438 18.394531 -2.703125 22.59375 -2.703125 C 24.03125 -2.703125 25.242188 -2.847656 26.234375 -3.140625 C 27.222656 -3.441406 28.257812 -3.894531 29.34375 -4.5 L 30.234375 -2.703125 C 28.859375 -1.679688 27.328125 -0.820312 25.640625 -0.125 C 23.960938 0.5625 21.742188 0.90625 18.984375 0.90625 Z M 18.984375 0.90625 "/></g></g></g></svg>